<?xml version="1.0" encoding="UTF-8"?>
<svg id="Layer_1" data-name="Layer 1" xmlns="http://www.w3.org/2000/svg" viewBox="0 0 179 175.15">
  <defs>
    <style>
      .cls-1 {
        fill: #e5d9cf;
      }
    </style>
  </defs>
  <path class="cls-1" d="m105.76,66.49c13.44-3.31,17.83-21.1,15.38-31.05-2.04-8.29-9.66-16.97-20-14.42-13.44,3.31-17.83,21.1-15.38,31.05,2.04,8.29,9.66,16.97,20,14.42Zm-39.29,9.68c10.34-2.55,13.06-13.77,11.01-22.06-2.66-10.78-14.81-24.49-28.25-21.18-10.34,2.55-13.06,13.77-11.01,22.06,1.62,11.03,13.78,24.75,28.25,21.18Zm74.47-27.15c-13.44,3.31-19.07,20.53-16.41,31.31,1.84,7.46,7.81,13.9,17.12,11.61,13.44-3.31,19.07-20.53,16.41-31.31-1.84-7.46-8.85-13.65-17.12-11.61Zm-83.62,47.87c-2.66-10.78-16.67-23.15-29.08-20.1-9.31,2.29-11.6,10.77-9.76,18.24,2.66,10.78,16.67,23.16,29.08,20.1,9.31-2.29,11.6-10.77,9.76-18.24Zm32.68-9.81c-20.68,5.1-42.06,38.51-37.56,56.75,2.04,8.29,9.89,8.99,18.16,6.96,12.41-3.06,20.08-11.98,31.45-14.79,10.34-2.55,21.28,1.79,32.65-1.01,8.27-2.04,17.17-5.99,14.92-15.11-4.49-18.24-38.95-37.89-59.63-32.8Z"/>
</svg>