<?xml version="1.0" encoding="UTF-8"?>
<svg id="Layer_1" data-name="Layer 1" xmlns="http://www.w3.org/2000/svg" viewBox="0 0 179 175.15">
  <defs>
    <style>
      .cls-1 {
        fill: #e5d9cf;
      }
    </style>
  </defs>
  <path class="cls-1" d="m68.81,108.06c7.1-2.9,7.5-14.42,4.99-20.57-2.09-5.12-7.33-10.16-12.79-7.93-7.11,2.9-7.51,14.42-5,20.57,2.09,5.12,7.33,10.16,12.8,7.93Zm-20.77,8.48c5.46-2.23,5.69-9.49,3.6-14.62-2.72-6.66-11.07-14.61-18.17-11.71-5.47,2.23-5.69,9.49-3.6,14.62,2.17,6.88,10.52,14.83,18.17,11.71Zm38.35-21.63c-7.1,2.9-8.26,14.13-5.54,20.79,1.88,4.61,5.95,8.33,10.87,6.32,7.11-2.9,8.26-14.13,5.54-20.79-1.88-4.61-6.49-8.11-10.87-6.32Zm-41.07,35.29c-2.71-6.66-11.94-13.65-18.5-10.97-4.92,2.01-5.23,7.51-3.35,12.12,2.72,6.66,11.95,13.65,18.51,10.98,4.92-2.01,5.23-7.51,3.34-12.12Zm17.08-8.16c-10.94,4.46-19,26.88-14.4,38.15,2.09,5.12,6.54,5.1,10.92,3.32,6.55-2.68,9.8-8.78,15.81-11.24,5.47-2.23,12.06-.14,18.07-2.59,4.38-1.79,8.88-4.82,6.58-10.45-4.6-11.27-26.05-21.64-36.98-17.18Z"/>
  <path class="cls-1" d="m137.57,47.24c7.32,2.32,14.99-6.28,17-12.61,1.67-5.28.86-12.5-4.77-14.28-7.31-2.32-14.99,6.28-17,12.61-1.67,5.28-.86,12.5,4.77,14.28Zm-21.39-6.78c5.63,1.78,10.45-3.66,12.12-8.93,2.18-6.86.85-18.31-6.47-20.63-5.63-1.78-10.45,3.66-12.12,8.93-2.73,6.68-1.41,18.13,6.47,20.62Zm43.32,7.92c-7.31-2.32-15.39,5.57-17.56,12.43-1.5,4.75-.76,10.21,4.31,11.81,7.31,2.32,15.39-5.57,17.56-12.43,1.5-4.75.19-10.39-4.31-11.81Zm-54.14.84c2.17-6.86-.45-18.14-7.2-20.28-5.07-1.6-8.82,2.43-10.33,7.18-2.17,6.86.45,18.14,7.2,20.28,5.07,1.61,8.82-2.43,10.33-7.18Zm18.34,4.65c-11.25-3.57-31.8,8.5-35.47,20.11-1.68,5.28,1.76,8.11,6.27,9.53,6.75,2.14,13.15-.48,19.34,1.49,5.63,1.78,9.36,7.61,15.55,9.57,4.5,1.43,9.9,1.98,11.74-3.83,3.68-11.61-6.17-33.3-17.43-36.87Z"/>
</svg>