<?xml version="1.0" encoding="UTF-8"?>
<svg id="Layer_1" data-name="Layer 1" xmlns="http://www.w3.org/2000/svg" viewBox="0 0 179 175.15">
  <defs>
    <style>
      .cls-1 {
        fill: #29414f;
      }
    </style>
  </defs>
  <path class="cls-1" d="m83.62,155.33c-9.38,0-18.24-1.85-26.59-5.55-8.35-3.7-15.64-8.75-21.88-15.15-6.23-6.4-11.15-13.89-14.75-22.46-3.61-8.57-5.4-17.68-5.4-27.31,0-9.75,1.8-18.88,5.41-27.4,3.61-8.52,8.52-15.97,14.75-22.37,6.23-6.4,13.52-11.45,21.86-15.15,8.35-3.7,17.21-5.55,26.6-5.55,9.49,0,18.39,1.85,26.68,5.55,8.29,3.7,15.55,8.75,21.78,15.15,6.24,6.4,11.15,13.86,14.75,22.38,3.6,8.52,5.4,17.65,5.41,27.39v10.22c0,6.93-2.31,12.83-6.94,17.71s-10.32,7.31-17.07,7.31c-4.12,0-7.95-.94-11.49-2.82-3.55-1.88-6.46-4.35-8.75-7.4-3.09,3.17-6.72,5.67-10.89,7.49-4.18,1.82-8.66,2.73-13.46,2.73-9.49,0-17.59-3.44-24.28-10.31-6.7-6.87-10.04-15.18-10.03-24.93,0-9.75,3.35-18.06,10.04-24.93,6.69-6.87,14.78-10.31,24.27-10.3,9.49,0,17.59,3.44,24.28,10.31,6.7,6.87,10.04,15.18,10.03,24.93v10.22c0,3.41,1.03,6.08,3.09,8.01,2.06,1.94,4.46,2.91,7.21,2.91,2.74,0,5.14-.97,7.2-2.91,2.06-1.94,3.09-4.61,3.09-8.01v-10.22c0-15.39-5.4-28.63-16.22-39.73-10.81-11.1-23.7-16.65-38.68-16.65-14.98,0-27.88,5.55-38.69,16.65-10.81,11.1-16.21,24.34-16.21,39.73,0,15.39,5.4,28.63,16.22,39.73,10.81,11.1,23.7,16.65,38.68,16.65h34.31v14.09h-34.31Zm0-49.33c5.72,0,10.58-2.06,14.58-6.17,4-4.11,6.01-9.1,6.01-14.98s-2-10.86-6.01-14.98c-4-4.11-8.86-6.17-14.58-6.17s-10.58,2.06-14.58,6.17c-4,4.11-6.01,9.1-6.01,14.98s2,10.86,6.01,14.98c4,4.11,8.86,6.17,14.58,6.17Z"/>
</svg>