<?xml version="1.0" encoding="UTF-8"?>
<svg id="Layer_1" data-name="Layer 1" xmlns="http://www.w3.org/2000/svg" viewBox="0 0 179 175.15">
  <defs>
    <style>
      .cls-1 {
        fill: #29414f;
      }
    </style>
  </defs>
  <path class="cls-1" d="m59.48,5.99h67.85c25.85,0,46.85,21,46.85,46.85v67.85c0,12.43-4.94,24.34-13.72,33.12-8.79,8.79-20.7,13.72-33.13,13.72H59.48c-25.85,0-46.85-21-46.85-46.85V52.84c0-12.42,4.94-24.34,13.72-33.13,8.79-8.79,20.7-13.72,33.13-13.72Zm-1.62,16.15c-7.71,0-15.11,3.06-20.56,8.52-5.45,5.45-8.52,12.85-8.52,20.56v71.08c0,16.07,13,29.08,29.08,29.08h71.08c7.71,0,15.11-3.06,20.56-8.52s8.52-12.85,8.52-20.56V51.22c0-16.07-13-29.08-29.08-29.08H57.86Zm77.94,12.12c2.68,0,5.25,1.06,7.14,2.96,1.89,1.89,2.96,4.46,2.96,7.14s-1.06,5.25-2.96,7.14c-1.89,1.89-4.46,2.96-7.14,2.96s-5.25-1.07-7.14-2.96c-1.89-1.89-2.96-4.46-2.96-7.14s1.06-5.25,2.96-7.14,4.46-2.96,7.14-2.96Zm-42.4,12.12c10.71,0,20.98,4.26,28.56,11.83,7.57,7.57,11.83,17.85,11.83,28.56s-4.26,20.98-11.83,28.56c-7.57,7.57-17.85,11.83-28.56,11.83s-20.98-4.26-28.56-11.83c-7.57-7.57-11.83-17.85-11.83-28.56s4.26-20.98,11.83-28.56c7.57-7.57,17.85-11.83,28.56-11.83Zm0,16.15c-6.43,0-12.59,2.55-17.13,7.1-4.54,4.54-7.1,10.71-7.1,17.13s2.55,12.59,7.1,17.13c4.54,4.54,10.71,7.1,17.13,7.1s12.59-2.55,17.13-7.1c4.54-4.54,7.1-10.71,7.1-17.13s-2.55-12.59-7.1-17.13c-4.54-4.54-10.71-7.1-17.13-7.1Z"/>
</svg>