<?xml version="1.0" encoding="UTF-8"?>
<svg id="Layer_1" data-name="Layer 1" xmlns="http://www.w3.org/2000/svg" viewBox="0 0 179 175.15">
  <defs>
    <style>
      .cls-1 {
        fill: #e1dacc;
      }
    </style>
  </defs>
  <path class="cls-1" d="m47.43,118.8c5.81-4.45,12.31-7.95,19.5-10.52,7.18-2.57,14.71-3.85,22.58-3.85,7.87,0,15.39,1.28,22.58,3.85,7.18,2.57,13.68,6.07,19.5,10.52,3.99-4.68,7.1-9.98,9.32-15.91,2.23-5.93,3.34-12.26,3.33-18.98,0-15.16-5.33-28.08-15.99-38.74-10.66-10.66-23.57-15.99-38.74-15.99-15.16,0-28.08,5.33-38.74,15.99-10.66,10.66-15.99,23.57-15.99,38.74,0,6.73,1.11,13.06,3.34,18.98,2.23,5.93,5.33,11.23,9.32,15.91Zm42.07-28.05c-6.73,0-12.4-2.31-17.02-6.92-4.62-4.61-6.93-10.29-6.92-17.02,0-6.73,2.31-12.4,6.92-17.02,4.61-4.62,10.29-6.93,17.02-6.92,6.73,0,12.4,2.31,17.02,6.92,4.62,4.61,6.93,10.29,6.92,17.02,0,6.73-2.31,12.4-6.92,17.02-4.61,4.62-10.29,6.93-17.02,6.92Zm0,61.57c-9.46,0-18.36-1.8-26.68-5.39-8.32-3.59-15.56-8.47-21.72-14.62-6.16-6.16-11.03-13.4-14.62-21.72-3.59-8.32-5.39-17.22-5.39-26.68,0-9.46,1.8-18.36,5.39-26.68,3.59-8.32,8.47-15.56,14.62-21.72,6.16-6.16,13.4-11.03,21.72-14.62,8.32-3.59,17.22-5.39,26.68-5.39,9.46,0,18.36,1.8,26.68,5.39,8.32,3.59,15.56,8.47,21.72,14.62,6.16,6.16,11.03,13.4,14.63,21.72,3.59,8.32,5.39,17.22,5.38,26.68,0,9.46-1.8,18.36-5.39,26.68-3.59,8.32-8.47,15.56-14.62,21.72-6.16,6.16-13.4,11.03-21.72,14.63-8.32,3.59-17.22,5.39-26.68,5.38Z"/>
</svg>