<?xml version="1.0" encoding="UTF-8"?>
<svg id="Layer_1" data-name="Layer 1" xmlns="http://www.w3.org/2000/svg" viewBox="0 0 179 175.15">
  <defs>
    <style>
      .cls-1 {
        fill: #29414f;
      }
    </style>
  </defs>
  <path class="cls-1" d="m89.5,81.03c-5.04,0-9.88-1.99-13.45-5.55-3.57-3.55-5.57-8.37-5.57-13.4s2-9.84,5.57-13.4c3.57-3.56,8.4-5.55,13.45-5.55s9.88,1.99,13.45,5.55c3.57,3.55,5.57,8.37,5.57,13.4,0,2.49-.49,4.95-1.45,7.25-.96,2.3-2.36,4.39-4.12,6.14-1.77,1.76-3.86,3.16-6.17,4.11-2.31.95-4.78,1.44-7.28,1.44Zm0-71.99c-14.12,0-27.67,5.59-37.66,15.54-9.99,9.95-15.6,23.44-15.6,37.51,0,39.79,53.25,98.52,53.25,98.52,0,0,53.25-58.73,53.25-98.52,0-14.07-5.61-27.56-15.6-37.51-9.99-9.95-23.53-15.54-37.66-15.54Z"/>
</svg>