<?xml version="1.0" encoding="UTF-8"?>
<svg id="Layer_1" data-name="Layer 1" xmlns="http://www.w3.org/2000/svg" viewBox="0 0 179 175.15">
  <defs>
    <style>
      .cls-1 {
        fill: none;
        stroke: #000;
        stroke-linecap: round;
        stroke-linejoin: round;
        stroke-width: 2px;
      }
    </style>
  </defs>
  <path class="cls-1" d="m80.3,27.57c.68-3.67,3.17-6.82,6.93-8.75,3.76-1.93,8.5-2.49,13.14-1.54l5,1.02c4.64.94,8.84,3.3,11.65,6.56,2.81,3.26,4.01,7.16,3.34,10.83-.37,3.03-1.79,5.83-4.05,7.96-2.27,2.13-5.25,3.48-8.51,3.86-3.31.71-6.4,2.69-8.82,5.65-2.42,2.96-4.02,6.74-4.57,10.78m-3.39,18.46l-.02.05"/>
  <path class="cls-1" d="m101,94.85c.68-3.67,3.17-6.82,6.93-8.75,3.76-1.93,8.5-2.49,13.14-1.54l5,1.01c4.64.94,8.84,3.3,11.65,6.56,2.81,3.26,4.01,7.16,3.34,10.83-.37,3.03-1.79,5.83-4.05,7.96-2.27,2.13-5.25,3.48-8.5,3.86-3.32.7-6.42,2.69-8.84,5.65-2.41,2.96-4.02,6.75-4.57,10.78m-3.39,18.46l-.02.05"/>
  <path class="cls-1" d="m75.93,71.1c-.68-3.67-3.17-6.82-6.93-8.75-3.76-1.93-8.5-2.49-13.14-1.54l-5,1.02c-4.64.94-8.84,3.3-11.65,6.56-2.81,3.26-4.01,7.16-3.34,10.83.37,3.03,1.79,5.83,4.05,7.96,2.27,2.13,5.25,3.48,8.5,3.86,3.32.71,6.42,2.69,8.84,5.65,2.41,2.96,4.02,6.74,4.57,10.78m3.39,18.46l.02.05"/>
</svg>