<?xml version="1.0" encoding="UTF-8"?>
<svg id="Layer_1" data-name="Layer 1" xmlns="http://www.w3.org/2000/svg" viewBox="0 0 179 175.15">
  <defs>
    <style>
      .cls-1 {
        fill: #29414f;
      }
    </style>
  </defs>
  <path class="cls-1" d="m162.61,40.11c-5.38,2.47-11.18,4.09-17.19,4.87,6.15-3.74,10.9-9.67,13.14-16.8-5.8,3.53-12.23,6-19.01,7.41-5.52-6.07-13.28-9.6-22.09-9.6-16.42,0-29.84,13.55-29.84,30.27,0,2.4.28,4.73.77,6.92-24.88-1.27-47.04-13.34-61.78-31.62-2.59,4.45-4.05,9.67-4.05,15.17,0,10.51,5.24,19.83,13.35,25.12-4.96,0-9.57-1.41-13.63-3.53v.21c0,14.68,10.34,26.96,24.04,29.71-4.4,1.22-9.02,1.38-13.49.49,1.9,6.02,5.62,11.28,10.63,15.05,5.01,3.77,11.07,5.86,17.33,5.98-10.6,8.47-23.73,13.05-37.25,12.98-2.38,0-4.75-.14-7.13-.42,13.28,8.61,29.07,13.62,45.99,13.62,55.07,0,85.34-46.15,85.34-86.17,0-1.34,0-2.61-.07-3.95,5.87-4.23,10.9-9.6,14.95-15.74Z"/>
</svg>