<?xml version="1.0" encoding="UTF-8"?>
<svg id="Layer_1" data-name="Layer 1" xmlns="http://www.w3.org/2000/svg" viewBox="0 0 179 175.15">
  <defs>
    <style>
      .cls-1 {
        fill: #29414f;
      }
    </style>
  </defs>
  <path class="cls-1" d="m148.28,32.19c-6.84-6.88-14.99-12.33-23.97-16.03-8.98-3.71-18.61-5.6-28.33-5.57-40.73,0-73.93,33.03-73.93,73.56,0,12.99,3.43,25.61,9.85,36.74l-10.44,38.15,39.17-10.24c10.82,5.87,22.98,8.98,35.36,8.98,40.73,0,73.93-33.03,73.93-73.56,0-19.67-7.68-38.15-21.64-52.03Zm-52.3,113.13c-11.04,0-21.86-2.97-31.33-8.54l-2.23-1.34-23.28,6.09,6.19-22.57-1.49-2.3c-6.14-9.75-9.39-21.01-9.4-32.51,0-33.7,27.61-61.17,61.48-61.17,16.41,0,31.85,6.38,43.42,17.96,5.73,5.67,10.26,12.41,13.35,19.84,3.09,7.43,4.66,15.4,4.63,23.43.15,33.7-27.45,61.09-61.33,61.09Zm33.72-45.73c-1.86-.89-10.97-5.34-12.61-6.01-1.71-.59-2.91-.89-4.18.89-1.27,1.86-4.77,6.01-5.82,7.2-1.05,1.26-2.16,1.41-4.03.45-1.87-.89-7.84-2.9-14.85-9.13-5.52-4.9-9.18-10.91-10.3-12.77-1.04-1.85-.15-2.82.82-3.78.82-.82,1.87-2.15,2.76-3.19.89-1.04,1.27-1.85,1.87-3.04.6-1.26.3-2.3-.15-3.19s-4.18-9.95-5.67-13.66c-1.49-3.56-3.06-3.12-4.18-3.19h-3.58c-1.27,0-3.21.45-4.92,2.3-1.64,1.86-6.42,6.31-6.42,15.37s6.64,17.82,7.54,19c.89,1.26,13.06,19.82,31.56,27.76,4.4,1.93,7.83,3.04,10.52,3.86,4.4,1.41,8.43,1.19,11.64.74,3.58-.52,10.97-4.45,12.46-8.76,1.56-4.31,1.56-7.94,1.04-8.76-.52-.82-1.64-1.19-3.51-2.08Z"/>
</svg>