<?xml version="1.0" encoding="UTF-8"?>
<svg id="Layer_1" data-name="Layer 1" xmlns="http://www.w3.org/2000/svg" viewBox="0 0 850 432">
  <defs>
    <style>
      .cls-1 {
        fill: #e5d9cf;
      }

      .cls-2 {
        fill: #d4ab89;
      }

      .cls-3 {
        fill: none;
        stroke: #41612d;
        stroke-miterlimit: 10;
      }
    </style>
  </defs>
  <rect class="cls-2" x="0" y="0" width="850" height="432"/>
  <g>
    <path class="cls-1" d="m755.79,222.77c-8.89-9.31-26.21-3.71-33.71,3.45-6.24,5.96-10.32,16.69-3.48,23.85,8.89,9.31,26.22,3.71,33.71-3.44,6.24-5.96,10.32-16.69,3.48-23.85Zm25.97,27.2c-6.84-7.16-17.74-3.59-23.99,2.38-8.12,7.75-14.51,24.8-5.62,34.11,6.83,7.16,17.74,3.59,23.99-2.38,8.8-7.03,15.19-24.09,5.62-34.11Zm-56.82-47.01c8.89,9.31,26.28,5.02,34.39-2.73,5.62-5.37,8.5-13.59,2.35-20.04-8.88-9.31-26.27-5.02-34.39,2.73-5.62,5.37-7.82,14.31-2.35,20.04Zm78.82,43.8c-8.12,7.75-12.52,25.64-4.32,34.23,6.15,6.44,14.5,3.94,20.12-1.42,8.12-7.75,12.52-25.64,4.32-34.23-6.15-6.44-14.5-3.94-20.12,1.42Zm-23.12-21.71c13.67,14.32,52.1,14.57,65.84,1.46,6.24-5.96,3.33-12.76-2.14-18.49-8.2-8.59-19.35-10.26-26.87-18.14-6.83-7.16-7.99-18.37-15.51-26.24-5.47-5.73-12.87-10.98-19.74-4.42-13.73,13.11-15.26,51.52-1.59,65.83Z"/>
    <path class="cls-3" d="m795.85,181.66c-5.36-2.38-10.37-5.04-14.57-8.38-7.66-6.1-11.98-14.01-18.72-20.65-6.74-6.64-17.44-12.25-29.52-10.86-13.39,1.54-23.23,11.34-25.57,20.77-2.34,9.43.92,18.68,3.37,27.8s3.96,18.96-1.53,27.91c-3.4,5.53-9.23,10.28-12.91,15.73-3.3,4.9-4.55,10.96-.25,15.26,4.08,4.08,5.41,9.87,8.97,14.4,7.37,9.39,18.73,17.16,32.98,21.28,22.25,6.43,51.27,3.04,69.98-9.7,8.2-5.58,14.08-12.54,18.21-19.85,4.25-7.52,5.83-15.47,10.52-22.88,2.84-4.49,6.93-8.64,7.6-13.51.46-3.35-.38-6.65-1.96-9.68-3.36-6.42-10-11.84-17.77-15.72-9.03-4.51-19.44-7.78-28.79-11.93h-.01Z"/>
  </g>
</svg>