<?xml version="1.0" encoding="UTF-8"?>
<svg id="Layer_1" data-name="Layer 1" xmlns="http://www.w3.org/2000/svg" viewBox="0 0 179 175.15">
  <defs>
    <style>
      .cls-1 {
        fill: #9ca69e;
      }
    </style>
  </defs>
  <path class="cls-1" d="m48.22,113.32c-7.39,0-13.4-2.31-17.91-6.91-4.51-4.6-7.47-11.41-9.19-21.34-2.54-14.62-.02-26.95,7.09-34.7,4.18-4.57,9.68-7.21,15.88-7.63,5.31-.37,13.25,1.5,20.92,12.47,4.8,6.87,8.45,15.99,10.02,25.03,1.89,10.91.48,18.94-4.31,24.55-3.81,4.45-9.66,7.21-17.39,8.22-1.69.21-3.4.32-5.11.32Zm12.8,38.17c-4.32,0-8.69-1.2-12.64-3.5-5.69-3.34-9.63-8.49-10.96-14.34-.93-4.15-.37-7.45,1.71-10.1,3.38-4.29,9.44-5.26,15.85-6.28.68-.11,1.36-.22,2.06-.33,1.48-.24,2.99-.57,4.45-.88,5.49-1.17,11.16-2.39,15.84.5,3.14,1.93,4.9,5.2,5.43,10.01.6,5.54-.77,11.08-3.87,15.58-3.33,4.85-8.33,8.05-14.06,9.03-1.26.21-2.54.32-3.83.32Zm67.06-65.37c-1.71,0-3.41-.12-5.1-.34-7.73-.99-13.58-3.75-17.39-8.22-4.79-5.61-6.21-13.64-4.31-24.55,1.57-9.05,5.21-18.16,9.99-25,7.63-10.93,15.58-12.82,20.92-12.49,6.18.39,11.67,2.99,15.86,7.54,7.15,7.75,9.69,20.12,7.14,34.8-1.72,9.92-4.64,16.7-9.19,21.34-4.55,4.63-10.53,6.92-17.92,6.92Zm-12.8,38.17c-1.28,0-2.56-.11-3.82-.32-5.74-.97-10.73-4.18-14.06-9.03-3.09-4.5-4.47-10.04-3.87-15.58.52-4.82,2.29-8.08,5.43-10.01,4.68-2.88,10.36-1.67,15.84-.49,1.46.31,2.97.63,4.45.88l2.06.33c6.42,1.02,12.48,1.98,15.85,6.28,2.08,2.64,2.64,5.95,1.71,10.1-1.33,5.84-5.27,11-10.96,14.34-3.96,2.31-8.34,3.5-12.65,3.5Z"/>
</svg>