<?xml version="1.0" encoding="UTF-8"?>
<svg id="Layer_1" data-name="Layer 1" xmlns="http://www.w3.org/2000/svg" viewBox="0 0 179 175.15">
  <defs>
    <style>
      .cls-1 {
        fill: #fef5f5;
      }
    </style>
  </defs>
  <path class="cls-1" d="m64.48,129.06c-1.78-2.05-2.67-4.38-2.67-6.98s.89-4.78,2.67-6.52l17.95-17.53H12.82c-2.75,0-5.05-.91-6.92-2.73-1.86-1.82-2.79-4.07-2.79-6.75,0-2.68.93-4.94,2.79-6.76,1.86-1.82,4.16-2.73,6.91-2.72h69.6l-17.95-17.53c-1.94-1.9-2.91-4.15-2.91-6.76s.97-4.86,2.91-6.75c1.78-1.9,4-2.84,6.68-2.84s4.89.87,6.66,2.6l34.92,34.12c.97.95,1.66,1.97,2.07,3.08.41,1.11.61,2.29.6,3.55,0,1.26-.2,2.45-.6,3.55-.4,1.11-1.09,2.13-2.07,3.08l-34.92,34.12c-1.94,1.89-4.2,2.76-6.79,2.6-2.59-.16-4.77-1.11-6.55-2.84Zm35.65,44.78c-2.75,0-5.05-.91-6.91-2.72-1.86-1.81-2.79-4.06-2.79-6.76,0-2.68.93-4.94,2.79-6.76,1.86-1.82,4.16-2.73,6.91-2.72h58.21V22.21h-58.21c-2.75,0-5.05-.91-6.92-2.73-1.86-1.82-2.79-4.07-2.79-6.75,0-2.69.93-4.94,2.79-6.76,1.86-1.82,4.16-2.73,6.91-2.72h58.21c5.34,0,9.9,1.86,13.71,5.57,3.8,3.71,5.7,8.18,5.7,13.38v132.68c0,5.21-1.9,9.68-5.7,13.39-3.8,3.72-8.37,5.57-13.7,5.56h-58.21Z"/>
</svg>