<?xml version="1.0" encoding="UTF-8"?>
<svg id="Layer_1" data-name="Layer 1" xmlns="http://www.w3.org/2000/svg" viewBox="0 0 179 175.15">
  <defs>
    <style>
      .cls-1 {
        fill: #e5d9cf;
      }
    </style>
  </defs>
  <path class="cls-1" d="m109.73,63.33c16.78-4.13,22.26-26.34,19.2-38.76-2.55-10.35-12.06-21.18-24.97-18-16.78,4.13-22.26,26.34-19.2,38.76,2.55,10.35,12.06,21.18,24.97,18Zm-49.04,12.09c12.91-3.18,16.3-17.19,13.75-27.54-3.32-13.45-18.49-30.58-35.26-26.44-12.91,3.18-16.3,17.19-13.75,27.54,2.03,13.77,17.2,30.89,35.26,26.44Zm92.96-33.88c-16.78,4.13-23.8,25.63-20.49,39.08,2.3,9.31,9.75,17.36,21.37,14.49,16.78-4.13,23.8-25.63,20.49-39.08-2.3-9.31-11.04-17.04-21.37-14.5Zm-104.38,59.75c-3.32-13.46-20.81-28.9-36.3-25.09-11.62,2.86-14.48,13.45-12.19,22.76,3.32,13.46,20.81,28.9,36.3,25.09,11.62-2.86,14.48-13.45,12.19-22.76Zm40.79-12.25c-25.81,6.36-52.5,48.07-46.89,70.84,2.55,10.35,12.35,11.23,22.67,8.68,15.49-3.82,25.06-14.96,39.26-18.46,12.91-3.18,26.56,2.24,40.76-1.26,10.32-2.55,21.43-7.48,18.62-18.86-5.61-22.77-48.62-47.3-74.43-40.94Z"/>
</svg>