<?xml version="1.0" encoding="UTF-8"?>
<svg id="Layer_1" data-name="Layer 1" xmlns="http://www.w3.org/2000/svg" viewBox="0 0 179 175.15">
  <defs>
    <style>
      .cls-1 {
        fill: none;
        stroke: #000;
        stroke-linecap: round;
        stroke-linejoin: round;
        stroke-width: 2px;
      }
    </style>
  </defs>
  <path class="cls-1" d="m79.01,17.05c.88-4.71,4.07-8.76,8.9-11.24,4.83-2.48,10.91-3.19,16.88-1.98l6.42,1.3c5.96,1.21,11.35,4.24,14.96,8.43,3.61,4.19,5.15,9.19,4.29,13.91-.48,3.9-2.29,7.48-5.21,10.22-2.91,2.74-6.74,4.47-10.93,4.95-4.25.91-8.22,3.45-11.33,7.26-3.11,3.81-5.17,8.66-5.87,13.84m-4.35,23.7l-.02.06"/>
  <path class="cls-1" d="m105.6,103.45c.88-4.71,4.07-8.76,8.9-11.24,4.83-2.48,10.91-3.19,16.88-1.98l6.42,1.3c5.96,1.21,11.35,4.24,14.96,8.43,3.61,4.19,5.15,9.19,4.29,13.91-.48,3.9-2.29,7.48-5.21,10.22-2.91,2.74-6.74,4.47-10.91,4.96-4.27.9-8.24,3.45-11.35,7.26-3.09,3.81-5.17,8.66-5.86,13.84m-4.35,23.7l-.02.06"/>
  <path class="cls-1" d="m73.4,72.95c-.88-4.72-4.07-8.76-8.9-11.24-4.83-2.48-10.91-3.19-16.88-1.98l-6.42,1.3c-5.96,1.21-11.35,4.24-14.96,8.43-3.61,4.19-5.15,9.19-4.29,13.91.48,3.9,2.29,7.48,5.21,10.22,2.91,2.74,6.74,4.47,10.91,4.95,4.27.91,8.24,3.45,11.35,7.26,3.09,3.81,5.17,8.66,5.86,13.84m4.35,23.7l.02.06"/>
</svg>