<?xml version="1.0" encoding="UTF-8"?>
<svg id="Layer_1" data-name="Layer 1" xmlns="http://www.w3.org/2000/svg" viewBox="0 0 179 175.15">
  <defs>
    <style>
      .cls-1 {
        fill: #29414f;
      }
    </style>
  </defs>
  <path class="cls-1" d="m152.3,26.33c-8.02-8.06-17.57-14.45-28.1-18.8-10.52-4.35-21.82-6.57-33.21-6.53C43.24,1,4.32,39.73,4.32,87.24c0,15.23,4.02,30.02,11.54,43.07l-12.24,44.73,45.92-12.01c12.68,6.88,26.94,10.53,41.46,10.53,47.75,0,86.68-38.73,86.68-86.24,0-23.06-9.01-44.73-25.36-61Zm-61.31,132.62c-12.94,0-25.62-3.48-36.73-10.01l-2.62-1.57-27.29,7.14,7.26-26.46-1.75-2.7c-7.19-11.43-11.01-24.63-11.02-38.12C18.84,47.73,51.2,15.54,90.9,15.54c19.24,0,37.34,7.48,50.9,21.06,6.71,6.65,12.03,14.55,15.65,23.26,3.62,8.71,5.46,18.05,5.43,27.47.17,39.51-32.18,71.62-71.9,71.62Zm39.53-53.61c-2.18-1.04-12.86-6.27-14.78-7.05-2.01-.7-3.41-1.04-4.9,1.04-1.49,2.18-5.6,7.05-6.82,8.44-1.23,1.48-2.54,1.65-4.72.52-2.19-1.04-9.19-3.4-17.4-10.71-6.47-5.74-10.76-12.79-12.07-14.97-1.22-2.17-.17-3.31.96-4.44.96-.96,2.19-2.53,3.24-3.74,1.05-1.22,1.49-2.17,2.19-3.57.7-1.48.35-2.7-.17-3.74s-4.9-11.66-6.65-16.01c-1.75-4.18-3.58-3.66-4.9-3.74h-4.2c-1.49,0-3.76.52-5.77,2.7-1.92,2.18-7.52,7.4-7.52,18.02s7.79,20.89,8.83,22.28c1.05,1.48,15.31,23.23,37,32.55,5.16,2.26,9.18,3.57,12.33,4.53,5.16,1.65,9.88,1.39,13.65.87,4.2-.61,12.86-5.22,14.61-10.27,1.83-5.05,1.83-9.31,1.22-10.27-.61-.96-1.92-1.39-4.11-2.44Z"/>
</svg>