<?xml version="1.0" encoding="UTF-8"?>
<svg id="Layer_1" data-name="Layer 1" xmlns="http://www.w3.org/2000/svg" viewBox="0 0 850 432">
  <defs>
    <style>
      .cls-1 {
        fill: #e5d9cf;
      }

      .cls-2 {
        fill: #e4e4e4;
      }

      .cls-3 {
        fill: #d4ab89;
      }

      .cls-4 {
        fill: #f2ddcd;
      }
    </style>
  </defs>
  <rect class="cls-3" x="0" y="0" width="850" height="432"/>
  <g>
    <path class="cls-2" d="m779.45,104.78c3.43-2.52,2.2-8.63.08-11.52-1.76-2.4-5.2-4.31-7.84-2.37-3.43,2.52-2.19,8.64-.08,11.52,1.76,2.4,5.2,4.31,7.84,2.37Zm-10.04,7.37c2.64-1.94,1.85-5.79.08-8.19-2.29-3.12-7.76-6.13-11.19-3.61-2.64,1.94-1.85,5.79-.08,8.19,2.03,3.32,7.49,6.33,11.19,3.61Zm17.78-16.75c-3.43,2.52-2.64,8.59-.34,11.71,1.59,2.16,4.23,3.55,6.61,1.8,3.43-2.52,2.64-8.59.34-11.71-1.59-2.16-4.49-3.35-6.61-1.8Zm-17.51,24.32c-2.29-3.12-8.11-5.5-11.28-3.18-2.38,1.75-1.85,4.68-.26,6.84,2.29,3.12,8.11,5.51,11.28,3.18,2.38-1.75,1.85-4.68.26-6.84Zm8.1-6.69c-5.28,3.88-6.77,16.8-2.89,22.08,1.76,2.4,4.14,1.76,6.25.21,3.17-2.33,4.14-5.99,7.04-8.13,2.64-1.94,6.43-1.76,9.33-3.9,2.11-1.55,4.14-3.78,2.2-6.42-3.88-5.28-16.65-7.73-21.94-3.85Z"/>
    <path class="cls-1" d="m771.05,277.25c10.34-2.55,13.72-16.2,11.84-23.83-1.57-6.36-7.42-13.01-15.37-11.05-10.34,2.55-13.72,16.2-11.84,23.83,1.57,6.36,7.42,13.01,15.37,11.05Zm-30.21,7.45c7.95-1.96,10.04-10.57,8.48-16.93-2.04-8.27-11.38-18.78-21.71-16.23-7.95,1.96-10.05,10.57-8.48,16.93,1.24,8.46,10.58,18.98,21.71,16.24Zm57.27-20.86c-10.34,2.55-14.67,15.76-12.63,24.02,1.41,5.72,6,10.66,13.16,8.9,10.34-2.55,14.67-15.76,12.63-24.02-1.41-5.72-6.8-10.47-13.16-8.9Zm-64.31,36.76c-2.04-8.27-12.81-17.75-22.35-15.4-7.16,1.76-8.93,8.27-7.52,13.99,2.04,8.27,12.81,17.75,22.35,15.4,7.16-1.76,8.93-8.27,7.52-13.99Zm25.13-7.54c-15.9,3.92-32.35,29.56-28.91,43.55,1.57,6.36,7.6,6.9,13.96,5.33,9.54-2.35,15.44-9.2,24.19-11.36,7.95-1.96,16.36,1.36,25.11-.79,6.36-1.57,13.2-4.6,11.48-11.6-3.45-13.99-29.93-29.05-45.83-25.13Z"/>
    <path class="cls-4" d="m767.34,181.48c5.6,1.92,11.27-3.4,12.68-7.5,1.17-3.42.43-8.26-3.88-9.74-5.6-1.92-11.27,3.4-12.68,7.51-1.17,3.42-.42,8.26,3.88,9.74Zm-16.37-5.61c4.31,1.48,7.87-1.89,9.04-5.31,1.52-4.45.31-12.13-5.29-14.05-4.31-1.48-7.87,1.89-9.04,5.31-1.96,4.3-.74,11.98,5.29,14.05Zm33.05,7.5c-5.6-1.92-11.59,2.91-13.11,7.36-1.05,3.08-.39,6.75,3.49,8.08,5.6,1.92,11.59-2.91,13.11-7.36,1.06-3.08-.04-6.9-3.49-8.08Zm-41.11-2.24c1.52-4.45-.67-12.08-5.84-13.85-3.88-1.33-6.65,1.16-7.71,4.24-1.52,4.45.67,12.08,5.84,13.85,3.88,1.33,6.66-1.16,7.71-4.24Zm14.02,4.04c-8.61-2.95-24,4.01-26.58,11.54-1.17,3.42,1.49,5.48,4.94,6.66,5.17,1.77,9.98.36,14.72,1.99,4.31,1.48,7.25,5.54,11.98,7.16,3.45,1.18,7.56,1.83,8.85-1.94,2.58-7.53-5.3-22.46-13.91-25.41Z"/>
  </g>
</svg>