<?xml version="1.0" encoding="UTF-8"?>
<svg id="Layer_1" data-name="Layer 1" xmlns="http://www.w3.org/2000/svg" viewBox="0 0 850 432">
  <defs>
    <style>
      .cls-1 {
        fill: #e5d9cf;
      }

      .cls-2 {
        fill: #d4ab89;
      }

      .cls-3 {
        fill: none;
        stroke: #41612d;
        stroke-miterlimit: 10;
      }
    </style>
  </defs>
  <rect class="cls-2" x="0" width="850" height="432"/>
  <path class="cls-1" d="m113.94,331.87c16.42,4.21,31.9-14.13,35.29-27.35,2.83-11.02-.1-25.86-12.73-29.1-16.42-4.21-31.9,14.13-35.29,27.35-2.83,11.02.1,25.86,12.73,29.1Zm-48.01-12.32c12.63,3.24,22.34-8.36,25.17-19.38,3.67-14.32-1.06-37.85-17.49-42.06-12.63-3.24-22.34,8.36-25.17,19.38-4.94,14-.2,37.53,17.49,42.06Zm96.31,12.96c-16.42-4.21-32.88,12.7-36.55,27.02-2.54,9.92-.03,21.13,11.34,24.05,16.42,4.21,32.88-12.7,36.56-27.02,2.54-9.92-1.23-21.45-11.34-24.05Zm-118.67,5.96c3.67-14.32-3.87-37.4-19.03-41.29-11.37-2.92-18.97,5.7-21.51,15.62-3.67,14.32,3.87,37.4,19.03,41.29,11.37,2.92,18.97-5.7,21.51-15.62Zm40.99,8.17c-25.27-6.48-68.42,20.03-74.64,44.26-2.83,11.02,5.17,16.59,15.28,19.18,15.16,3.89,28.79-2.01,42.69,1.56,12.63,3.24,21.74,14.97,35.64,18.54,10.11,2.59,22.04,3.31,25.15-8.81,6.22-24.24-18.85-68.25-44.12-74.73Z"/>
  <path class="cls-3" d="m90.82,407.26c7.65-1.08,15.11-1.59,22.13-.78,12.82,1.48,23.16,7.31,35.32,10.04,12.17,2.72,28.05,1.54,40.58-8.43,13.89-11.06,18.07-28.88,14.12-41.05-3.95-12.18-14.06-20.25-23.14-28.74-9.08-8.49-17.65-18.44-17.74-32.28-.06-8.55,3.16-17.92,3.47-26.59.28-7.78-2.56-15.42-10.35-17.24-7.41-1.72-12.92-7.26-20.07-9.86-14.79-5.37-32.91-6.14-51.71-.81-29.36,8.32-59.45,32.35-71.5,59.62-5.28,11.96-7,23.83-6.52,34.89.49,11.37,4.27,21.36,4.19,32.92-.04,7-1.73,14.5.92,20.41,1.83,4.06,5.06,7.17,8.94,9.45,8.23,4.83,19.43,6.27,30.83,5.19,13.23-1.25,27.17-4.85,40.51-6.73h.01Z"/>
</svg>