<?xml version="1.0" encoding="UTF-8"?>
<svg id="Layer_1" data-name="Layer 1" xmlns="http://www.w3.org/2000/svg" viewBox="0 0 850 432">
  <defs>
    <style>
      .cls-1 {
        fill: none;
        stroke: #5a686f;
        stroke-linecap: round;
        stroke-linejoin: round;
        stroke-width: 4px;
      }

      .cls-2 {
        fill: #d4ab89;
      }

      .cls-3 {
        fill: #29414f;
      }
    </style>
  </defs>
  <rect class="cls-2" x="0" y="0" width="850" height="432"/>
  <g>
    <path class="cls-3" d="m749.55,398.08h12.08v-12.57h12.08v-12.57h-12.08v-12.57h-12.08v12.57h-12.08v12.57h12.08v12.57Zm36.24-21.99h36.24v-9.43h-36.24v9.43Zm0,18.85h24.16v-9.43h-24.16v9.43Zm-54.37,28.28c-3.32,0-6.17-1.23-8.54-3.69-2.37-2.46-3.55-5.42-3.55-8.87v-69.12c0-3.46,1.18-6.42,3.55-8.88,2.37-2.46,5.21-3.69,8.53-3.69h30.2v-18.85c0-3.46,1.18-6.42,3.55-8.88,2.37-2.46,5.21-3.69,8.53-3.69h12.08c3.32,0,6.17,1.23,8.54,3.69,2.37,2.46,3.55,5.42,3.55,8.87v18.85h30.2c3.32,0,6.17,1.23,8.54,3.69,2.37,2.46,3.55,5.42,3.55,8.87v69.12c0,3.46-1.18,6.42-3.55,8.88-2.37,2.46-5.21,3.69-8.53,3.69h-96.65Zm42.28-81.69h12.08v-31.42h-12.08v31.42Z"/>
    <path class="cls-1" d="m718.19,285.38c.45,0,.87.18,1.19.5.32.32.49.76.49,1.21v7.76l6.61-3.88c.39-.23.85-.29,1.28-.17.43.12.8.4,1.02.8l1.68,2.96c.22.39.28.86.17,1.3-.12.44-.4.81-.78,1.04l-6.61,3.88,6.61,3.88c.39.23.67.6.78,1.04.12.44.06.91-.17,1.3l-1.68,2.96c-.22.39-.59.68-1.02.8s-.89.06-1.28-.17l-6.61-3.88v7.76c0,.45-.18.89-.49,1.21-.32.32-.74.5-1.19.5h-3.37c-.45,0-.87-.18-1.19-.5-.32-.32-.49-.76-.49-1.21v-7.76l-6.61,3.88c-.39.23-.85.29-1.28.17-.43-.12-.8-.4-1.02-.8l-1.68-2.96c-.22-.39-.28-.86-.17-1.3.12-.44.4-.81.78-1.04l6.61-3.88-6.61-3.88c-.39-.23-.67-.6-.78-1.04-.12-.44-.06-.91.17-1.3l1.68-2.96c.22-.39.59-.68,1.02-.8.43-.12.89-.06,1.28.17l6.61,3.88v-7.76c0-.45.18-.89.49-1.21.32-.32.74-.5,1.19-.5h3.37Z"/>
    <path class="cls-1" d="m685.17,318.62c.61,0,1.2.24,1.63.67.43.43.68,1.02.68,1.62v10.42l9.07-5.21c.53-.3,1.16-.39,1.75-.23s1.1.54,1.4,1.07l2.31,3.98c.31.53.39,1.15.23,1.74-.16.59-.55,1.09-1.08,1.39l-9.07,5.21,9.07,5.21c.53.3.92.81,1.08,1.39.16.59.08,1.22-.23,1.74l-2.31,3.98c-.31.53-.81.91-1.4,1.07-.59.16-1.22.08-1.75-.23l-9.07-5.21v10.42c0,.61-.24,1.19-.68,1.62-.43.43-1.02.67-1.63.67h-4.62c-.61,0-1.2-.24-1.63-.67-.43-.43-.68-1.02-.68-1.62v-10.42l-9.07,5.21c-.53.3-1.16.39-1.75.23-.59-.16-1.1-.54-1.4-1.07l-2.31-3.98c-.31-.53-.39-1.15-.23-1.74.16-.59.55-1.09,1.08-1.39l9.07-5.21-9.07-5.21c-.53-.3-.92-.81-1.08-1.39-.16-.59-.08-1.22.23-1.74l2.31-3.98c.31-.53.81-.91,1.4-1.07.59-.16,1.22-.08,1.75.23l9.07,5.21v-10.42c0-.61.24-1.19.68-1.62.43-.43,1.02-.67,1.63-.67h4.62Z"/>
  </g>
</svg>