<?xml version="1.0" encoding="UTF-8"?>
<svg id="Layer_1" data-name="Layer 1" xmlns="http://www.w3.org/2000/svg" viewBox="0 0 850 432">
  <defs>
    <style>
      .cls-1 {
        fill: #e5d9cf;
      }

      .cls-2 {
        fill: #d4ab89;
      }

      .cls-3 {
        fill: none;
        stroke: #41612d;
        stroke-miterlimit: 10;
      }
    </style>
  </defs>
  <rect class="cls-2" x="0" y="0" width="850" height="432"/>
  <g>
    <path class="cls-1" d="m774.17,326.39c8.9-6.73,5.81-22.19.4-29.34-4.51-5.96-13.34-10.52-20.18-5.35-8.9,6.73-5.81,22.19-.4,29.34,4.51,5.96,13.34,10.52,20.18,5.35Zm-26,19.66c6.84-5.17,4.86-14.91.35-20.87-5.86-7.75-19.9-14.93-28.79-8.2-6.84,5.17-4.86,14.91-.35,20.87,5.17,8.27,19.21,15.45,28.79,8.2Zm46.13-44.25c-8.9,6.73-6.94,22.11-1.08,29.86,4.06,5.36,10.85,8.66,17.01,4,8.89-6.73,6.94-22.11,1.08-29.86-4.06-5.36-11.53-8.14-17.01-4Zm-45.56,63.5c-5.86-7.75-20.82-13.3-29.03-7.09-6.16,4.66-4.84,12.09-.78,17.46,5.86,7.75,20.82,13.3,29.03,7.09,6.16-4.66,4.84-12.09.78-17.46Zm21-17.75c-13.69,10.35-17.74,43.39-7.82,56.5,4.51,5.96,10.65,4.13,16.12-.01,8.21-6.21,10.76-15.64,18.29-21.33,6.84-5.17,16.61-5.06,24.13-10.76,5.48-4.14,10.73-9.99,5.77-16.54-9.92-13.11-42.81-18.21-56.5-7.86Z"/>
    <path class="cls-3" d="m763.81,387.55c4.1-.23,8.12-.15,11.97.66,7.03,1.47,12.93,5.27,19.67,7.41,6.74,2.14,15.3,2.26,21.6-2.74,6.99-5.54,8.38-15.38,5.62-22.44-2.75-7.06-8.63-12.11-13.98-17.34-5.35-5.23-10.49-11.27-11.23-19.07-.45-4.82.83-9.95.57-14.81-.23-4.37-2.15-8.82-6.47-10.23-4.1-1.34-7.37-4.73-11.38-6.55-8.29-3.76-18.17-5.09-28.1-3.02-15.52,3.23-30.66,15.28-35.84,30.06-2.27,6.48-2.62,13.09-1.81,19.34.83,6.43,3.37,12.25,3.91,18.76.33,3.94-.22,8.08,1.51,11.55,1.19,2.38,3.1,4.29,5.32,5.77,4.71,3.13,10.86,4.5,16.99,4.45,7.12-.05,14.5-1.39,21.65-1.78h0Z"/>
  </g>
</svg>