<?xml version="1.0" encoding="UTF-8"?>
<svg id="Layer_1" data-name="Layer 1" xmlns="http://www.w3.org/2000/svg" viewBox="0 0 179 175.15">
  <defs>
    <style>
      .cls-1 {
        fill: #fef5f5;
      }
    </style>
  </defs>
  <path class="cls-1" d="m37.43,132.59c7.34-5.61,15.53-10.03,24.6-13.27,9.06-3.24,18.55-4.86,28.48-4.85,9.92,0,19.42,1.62,28.48,4.86,9.06,3.24,17.26,7.66,24.6,13.26,5.03-5.9,8.96-12.59,11.76-20.06,2.81-7.48,4.21-15.46,4.2-23.95,0-19.13-6.72-35.42-20.17-48.87-13.44-13.45-29.74-20.17-48.87-20.17-19.13,0-35.42,6.72-48.87,20.17-13.45,13.44-20.17,29.74-20.17,48.87,0,8.49,1.4,16.47,4.21,23.95,2.81,7.48,6.73,14.17,11.75,20.06Zm53.07-35.38c-8.49,0-15.64-2.91-21.47-8.73-5.83-5.82-8.74-12.98-8.73-21.47,0-8.49,2.91-15.64,8.73-21.47,5.82-5.83,12.98-8.74,21.47-8.73,8.49,0,15.64,2.91,21.47,8.73,5.83,5.82,8.74,12.98,8.73,21.47,0,8.49-2.91,15.64-8.73,21.47-5.82,5.83-12.98,8.74-21.47,8.73Zm0,77.67c-11.94,0-23.16-2.27-33.66-6.8-10.5-4.53-19.63-10.68-27.4-18.44-7.77-7.77-13.91-16.9-18.44-27.4-4.53-10.5-6.79-21.72-6.8-33.66,0-11.94,2.27-23.16,6.8-33.66,4.53-10.5,10.68-19.63,18.44-27.4,7.77-7.77,16.9-13.91,27.4-18.44,10.5-4.53,21.72-6.79,33.66-6.8,11.94,0,23.16,2.27,33.66,6.8,10.5,4.53,19.63,10.68,27.4,18.44,7.77,7.77,13.92,16.9,18.45,27.4,4.53,10.5,6.8,21.72,6.79,33.66,0,11.94-2.27,23.16-6.8,33.66-4.53,10.5-10.68,19.63-18.44,27.4-7.77,7.77-16.9,13.92-27.4,18.45-10.5,4.53-21.72,6.8-33.66,6.79Z"/>
</svg>