<?xml version="1.0" encoding="UTF-8"?>
<svg id="Layer_1" data-name="Layer 1" xmlns="http://www.w3.org/2000/svg" viewBox="0 0 179 175.15">
  <defs>
    <style>
      .cls-1 {
        fill: #f5936f;
      }
    </style>
  </defs>
  <path class="cls-1" d="m81.35,131.6h17.42v-34.84h34.84v-17.42h-34.84v-34.84h-17.42v34.84h-34.84v17.42h34.84v34.84Zm8.71,43.55c-12.05,0-23.37-2.29-33.97-6.86-10.6-4.58-19.81-10.78-27.65-18.61-7.84-7.84-14.04-17.06-18.61-27.65-4.57-10.6-6.86-21.92-6.86-33.97,0-12.05,2.29-23.37,6.86-33.97,4.58-10.6,10.78-19.81,18.61-27.65,7.84-7.84,17.06-14.04,27.65-18.61C66.69,3.25,78.01.96,90.06.95c12.05,0,23.37,2.29,33.97,6.86,10.6,4.58,19.81,10.78,27.65,18.61,7.84,7.84,14.05,17.06,18.62,27.65,4.58,10.6,6.86,21.92,6.85,33.97,0,12.05-2.29,23.37-6.86,33.97-4.58,10.6-10.78,19.81-18.61,27.65-7.84,7.84-17.06,14.05-27.65,18.62-10.6,4.58-21.92,6.86-33.97,6.85Z"/>
</svg>