<?xml version="1.0" encoding="UTF-8"?>
<svg id="Layer_1" data-name="Layer 1" xmlns="http://www.w3.org/2000/svg" viewBox="0 0 179 175.15">
  <defs>
    <style>
      .cls-1 {
        fill: #542f17;
      }

      .cls-2 {
        fill: #825833;
      }

      .cls-3 {
        fill: #d19557;
      }

      .cls-4 {
        fill: #9a6633;
      }

      .cls-5 {
        fill: #7b4b1f;
      }

      .cls-6 {
        fill: #be8d4c;
      }

      .cls-7 {
        fill: #966233;
      }

      .cls-8 {
        fill: #b7aba3;
      }

      .cls-9 {
        fill: #6e3f19;
      }

      .cls-10 {
        fill: #b27c4b;
      }

      .cls-11 {
        fill: #8e5e2c;
      }

      .cls-12 {
        fill: #634c3b;
      }

      .cls-13 {
        fill: #bc7f4b;
      }

      .cls-14 {
        fill: #885a2b;
      }

      .cls-15 {
        fill: #9e6a39;
      }

      .cls-16 {
        fill: #9d907e;
      }

      .cls-17 {
        fill: #f8b672;
      }

      .cls-18 {
        fill: #724823;
      }

      .cls-19 {
        fill: #7e624d;
      }

      .cls-20 {
        fill: #492c16;
      }

      .cls-21 {
        fill: #5a361a;
      }

      .cls-22 {
        fill: #452b16;
      }

      .cls-23 {
        fill: #b4773f;
      }

      .cls-24 {
        fill: #f8b473;
      }

      .cls-25 {
        fill: #f7b269;
      }

      .cls-26 {
        fill: #573616;
      }

      .cls-27 {
        fill: #865a24;
      }

      .cls-28 {
        fill: #7a471f;
      }

      .cls-29 {
        fill: #c48953;
      }

      .cls-30 {
        fill: #895a2c;
      }

      .cls-31 {
        fill: #79481d;
      }

      .cls-32 {
        fill: #5b391a;
      }

      .cls-33 {
        fill: #544432;
      }

      .cls-34 {
        fill: #f7b56e;
      }

      .cls-35 {
        fill: #806e68;
      }

      .cls-36 {
        fill: #6e411b;
      }
    </style>
  </defs>
  <path class="cls-20" d="m55.09,171.21c-7.83-1.46-18.57-11.49-19.27-18.81-.52-5.49,1.87-10.72,3.59-15.83,4.71-14,9.66-27.93,14.86-41.76,1.3-3.46.91-4.38-2.66-5.59-5.74-1.94-10.6-5.87-14.54-10.38-2.15-2.47-4.01-3.98-7.13-3.44-2.38.41-3.57-1.24-5.08-2.42-2.43-3.59.77-5.85,2.03-8.57.35-.35.69-.7,1.04-1.05,3.74-2.47,7.72-1.24,11.64-.75,2.63.56,3.25,3.14,4.8,4.8,3.3,3.53,6.37,7.33,10.98,9.3,1.58.85,3.2,1.63,4.88,2.26,5.54,1.91,11.31,2.8,17.01,3.98.53.08,1.06.21,1.58.35,4.54.65,9.06.88,13.57-.21.73-.39,1.48-.72,2.27-.99,13.34-1.05,24-6.49,30.85-18.48,1.85-3.25,5.1-2.76,8.19-2.26,2.62,1.13,5.91-.3,8.19,2.12,5.58,6.11,4.69,10.5-3.41,11.24-6.37.58-7.71,6.16-12,8.64-3.97,2.3-7.69,4.94-12.1,6.4-3.26,1.08-3.82,2.65-2.36,6.2,3.93,9.54,7.45,19.27,10.5,29.12,1.47,4.74,3.02,5.34,7.45,3.34,8.08-3.65,21.93-2.94,28.48,3.95,6.01,6.32,5.2,19.02.92,24.19-4.65,5.62-10.55,9.75-17.31,12.26-3.24,1.2-5.91,3.45-9.53,4.07-4.28.73-8.19.65-11.64-1.87-3.4-2.48-6.91-2.78-10.6-1.41-10.26,3.81-20.49,3.56-30.92.68-3.59-.99-7.43-.48-11.02.91-4.42.78-8.84.77-13.26,0Z"/>
  <path class="cls-22" d="m138.79,36.27c.43.62.87,1.24,1.3,1.86,1,1.3,1.56,2.82,2.07,4.36,1.67,5.09,1.22,5.92-4.13,7.6-4.57-.83-9.31-1.38-11.18-6.72-.83-7.5.26-15.06-.64-22.55-.25-.47-.51-.95-.79-1.41-1.28-3.31-3.21-4.14-6-1.54-1.84,1.71-3.83,3.21-6.06,4.4-4.44,2.71-9.1,2.67-13.9,1.2-2.56-.78-5.26-.89-7.83-1.6-.54-.18-1.04-.43-1.52-.72-4.49-1.64-9.04-1.07-13.58-.38-1.03.38-2.06.78-3.1,1.13-.7.2.15-.11-.5.19-9.26,4.18-17,1.63-23.75-5.33-4.28-2.87-5.89-2.26-6.76,2.61-.22,1.24-.27,2.5-.64,3.73-.68,6.53.06,13.09-.43,19.62-.08.59-.26,1.16-.51,1.7-.73,1.34-2.03,1.97-3.29,2.65-2.41,1.13-4.77,2.4-7.46,2.78-1.65.02-3.14-.4-4.32-1.63-4.51-5.23-3.28-8.93,4.41-13.2.66-.57.84-1.38,1.05-2.18.24-5.04-.06-10.09.29-15.13-.82-6.32,2.52-10.95,7.21-13.95,5.55-3.55,12.34-1.61,16.46,1.98,6.21,5.42,12.27,6.35,19.56,4.3,5.12-.8,10.23-.76,15.35-.02,4.47-.59,8.31,3.09,13.22,1.4,2.8-.96,5.01-2.42,7.22-4.03,3.04-2.22,6.06-3.93,10.06-3.9,11.48.08,14.31,2.42,16.3,14.15.08.46.53.86.81,1.29,1.74,5.7-.27,11.64,1.11,17.36Z"/>
  <path class="cls-1" d="m137.8,49.26c3.46-.98,5.6-2.51,2.89-6.36-.99-1.41-.67-3.14-.6-4.76.71.1,1.5.04,2.13.33,2.18.97,3.89,3.5,3.04,5.02-3.31,5.97,7.5,12.41-.84,17.88-2.2.63-4.39,1.35-6.69.43-3.33-4.46-3.32-7.41.07-12.53Z"/>
  <path class="cls-21" d="m25.74,48.2c1.55-.19,2.97.13,4.26,1.02,2.12.56,2.35,2.32,2.59,4.08.11,2.29-.24,4.49-1.38,6.52-.57.97-1.32,1.76-2.35,2.25-.27.06-.53.11-.8.17-3.36.77-5.33-1.6-6.24-3.89-.92-2.3-1.04-5.28,1.7-7.27.92-.67,2.17-1.38,2.22-2.87Z"/>
  <path class="cls-19" d="m26.9,64.41c-.68,2.86-1.36,5.71-2.03,8.57-5.69-4.37.02-6.03,2.03-8.57Z"/>
  <path class="cls-16" d="m138.79,36.27c-2.22-5.67-.25-11.61-1.11-17.36,2.7,5.64.68,11.58,1.11,17.36Z"/>
  <path class="cls-8" d="m31.51,34c-.28.56-.51,1.21-1.36,1,.77-5.4-1.35-10.98,1.06-16.27,1.16,5.07.63,10.18.3,15.28Z"/>
  <path class="cls-33" d="m31.51,34c-.1-5.09-.2-10.19-.3-15.28.04-.36.13-.7.28-1.04,1.52,5.44,1.41,10.87.02,16.31Z"/>
  <path class="cls-2" d="m137.83,61.21c2.2.05,4.39.1,6.59.15-.84.71-1.68,1.42-2.52,2.13-2.83-.37-5.83.66-8.5-1.03,1.15-1.59,2.68-1.82,4.43-1.25Z"/>
  <path class="cls-35" d="m90.06,10c-5.12,0-10.23.01-15.35.02,5.11-1.62,10.23-1.81,15.35-.02Z"/>
  <path class="cls-28" d="m40.04,63.45c-4.03-.03-8.07-.06-12.1-.08.04-.38.08-.75.13-1.13,0,0-.03.04-.03.04,3.76-1.86,7.61-2.01,11.53-.55.62.45.77,1.02.47,1.72Z"/>
  <path class="cls-12" d="m55.09,171.21c4.42,0,8.84,0,13.26,0-4.42,1.72-8.84,1.65-13.26,0Z"/>
  <path class="cls-24" d="m40.04,63.45c-.05-.32-.14-.63-.28-.92-.27-.74-1.18-.98-1.37-1.77.62-3.64,3.52-4.12,5.92-3.03,2.66,1.21,5.14.55,7.7.74.51.17.99.4,1.45.68,2.68,1.65,5.41,2.44,7.54-.66,1.62-2.34,1.54-5.01-.9-6.68-2.69-1.84-5.7-2.05-8.31.49-.77.74-1.36,1.67-2.34,2.19-6.06.9-12.15,2.27-18.01-.9-.23-1.54-.28-3.13-1.42-4.37,2.25-1,4.51-2.01,6.76-3.01,2.4,1.03,4.55,3.09,7.57,1.64-1.14-1.49-4.77.27-4.46-3.19-.04-.28-.02-.56.08-.82.37-.35.73-.72,1.07-1.1.53-.59,1.18-1.02,1.88-1.38,9.02-5.09,16.12.13,23.38,4.4.96.56,1.81,1.54,1.78,2.6-.18,5.23,4.31,7.17,7.09,10.27,2.37,2.65,5.42,1.37,8.13.71,2.91-.72,2.21-3.28,2.1-5.41-.08-1.63-.06-3.25-.05-4.88.03-4.11,1.91-6.25,6.16-6.64,6.25-.57,6.42-.92,6.84-7.2.44-6.73.63-6.91,7.71-7.25,1.08-.05,2.15-.3,3.22-.39q6.14-.53,4.15-5.81c-.11-.29.17-.66.42-.95,1.8-1.6,3.54-3.26,5.4-4.79,3.63-2.99,5.53-2.18,6.61,2.73,2.2,4.29.7,8.89,1.04,13.33.27,3.42-.12,6.88.2,10.31.18.61.44,1.18.76,1.73,2.32,3.63,6.81,3.06,9.94,5.12-.11,3.98-2.86,7.98.03,11.95-1.48.42-2.95.84-4.43,1.25-3.96-.95-6.12.46-8.35,4.15-6.85,11.34-17.46,16.45-30.61,16.47-5.37,1.84-10.87.83-16.33.74-6.5.04-12.65-1.52-18.63-3.93.64-3.84,3.81-2.35,5.98-2.73,6.26-1.11,12.67-1.43,18.63-3.86,2.74-5.52,2.12-6.51-4.02-6.32-1.08.03-2.15.25-3.24.25-1.47-.25-2.69-.09-3.89,1.08-3.61,3.52-7.4,6.74-12.99,6.35-2.23-.16-2.92,2.5-4.83,3.06-7.12-2.55-11.19-8.33-15.08-14.29Z"/>
  <path class="cls-25" d="m104.36,110.27c1.54,5.84,4.75,11.16,5.42,17.28-5.49-.42-6.66,2.31-7.01,7.49-.42,6.26-6.79,9.07-14.35,7.18-4.11-1.03-8.1-2.42-11.46,1.57-3.69,1.72-2.01,5.47-2.81,8.18-2.46,8.33-9.22,11.63-17.16,7.74-1.27-.62-2.59-1.16-3.89-1.74-4.57-3.77-4.98-8.76-4.11-14.12,5.77-14.72,9.5-30.16,15.83-44.69.67-1.54,1.83-2.61,2.43-4.09,3.02-2.62,6.07-.27,9.1-.06,5.69.79,11.39.78,17.09.08,5.38-1.35,6.67,2.24,7.6,6.29,2.05,2.61,3.76,5.34,3.32,8.88Z"/>
  <path class="cls-17" d="m76.96,143.8c.43-4.55,3.43-4.94,6.97-4.18,2.46.53,4.83,1.51,7.3,1.96,5.93,1.07,10.39-2.54,10.7-8.53.09-1.81.03-3.62.02-5.43-.01-3.07,1.09-3.75,3.37-1.5,1.28,1.27,2.76,1.61,4.46,1.44.66,1.76,1.39,3.5,1.97,5.29,1.51,4.66,3.91,8.03,9.56,6.88,3.24,1.88,5.74,4.51,7.72,7.66,3.16,2.92,6.79,2.9,9.63.17,3.46-3.33.31-6.44-1.88-9.23,2.02-1.24,3.84-.96,5.56-.91,3.14.1,5.87,1.27,7.7,3.95,2.09,3.08.02,5.42-1.58,7.79-4.26,6.34-10.36,9.97-17.5,12.26-3.13,1-5.45.42-7.41-2.1-3.45-2.3-5.26-7.7-10.93-5.81-6.1,6.79-13.31,10.14-22.41,6.84-4.83-1.75-8.34-4.75-7.85-10.63.32-3.82-1.1-6.22-5.39-5.91Z"/>
  <path class="cls-34" d="m85.59,73.04c-.06,2.54-1.56,3.54-3.87,3.39-6.98-.46-13.46,3.47-20.53,2.37-.51-.08-1.15.71-1.72,1.1-1.69-.24-3.14-.97-4.35-2.16.84-3.43,2.67-5.08,6.52-4.61,4.81.59,7.96-2.98,10.51-6.1,1.99-2.43,2.92-1.75,4.57-.37,2.04,3.41,5.38,5,8.87,6.39Z"/>
  <path class="cls-10" d="m48.99,143.86c1.05,4.8.36,10.11,4.11,14.12-6.2-5.12-7-7.86-4.11-14.12Z"/>
  <path class="cls-18" d="m75.87,95.82c-2.85-.51-5.69-1.24-8.62-.73.44-3.47,3.1-2.34,4.93-2.1,2.04.26,3.98,1.21,5.97,1.87-.49.95-1.6.46-2.28.97Z"/>
  <path class="cls-27" d="m75.87,95.82c.76-.32,1.52-.65,2.27-.97,5.1.08,10.2.17,15.29.26-5.78,2.05-11.69.92-17.57.72Z"/>
  <path class="cls-6" d="m78.1,83.83c5.37-1.8,10.89-.41,16.33-.74-.39.35-.79.7-1.18,1.05-5.07.86-10.16.55-15.25.16l-.09-.26.18-.21Z"/>
  <path class="cls-15" d="m112.61,153.5c6.3-3.08,7.95,2.62,10.93,5.81-4-1.26-5.8-6.68-10.93-5.81Z"/>
  <path class="cls-9" d="m78.01,84.3c5.08-.05,10.17-.11,15.25-.16-5.07,1.73-10.15,1.5-15.25.16Z"/>
  <path class="cls-4" d="m129.02,147.39c-2.57-2.55-5.14-5.11-7.72-7.66,4.23.88,6.47,3.77,7.72,7.66Z"/>
  <path class="cls-14" d="m104.36,110.27c-1.11-2.96-2.21-5.92-3.32-8.88,3.35,2.12,4.94,4.9,3.32,8.88Z"/>
  <path class="cls-34" d="m113.85,20.82c.15,1.16.57,2.12,1.9,2.26,2.2.23,2.84,1.34,1.91,3.32-.77,1.65-1.72,3.91-3.81,2.93-3.94-1.86-7.71,1.57-11.65-.25-1.53-.71-2.32,1.28-2.39,2.82-.09,1.98.05,3.98-.08,5.96-.25,3.81-1.43,6.73-6.19,5.95-5.63-.93-7.57,1.76-6.84,7.07.27,1.95.14,3.98.58,5.88.41,1.78-.38,2.77-1.59,3.65-2.23,1.62-5.02.14-7.34,1.24-3.43,1.64-3.8-1.35-5.01-3.18-.68-1.03-1.36-2.22-2.87-2.15-1.29.07-2.62-.93-2.5-1.62,1.32-7.85-6.26-8.43-9.82-12.24-2.41-2.58-5.59-2.19-8.62-1.64-2.44.44-4.82,1.25-7.23,1.9-2.61-6.52-.72-13.27-1.06-19.91.3-1.04.32-2.1.4-3.18.41-5.7,2.95-6.93,8-3.92,2.44,1.71,4.95,3.34,7.31,5.17,2.56,1.98,5.07,2.77,8.35,1.6,2.62-.94,5.53-1.07,8.32-1.57,5.85-1.4,11.7-1.86,17.56-.02,2.65.18,5.28.04,7.88,1.06,5.06,2,10.03,1.38,14.8-1.14Z"/>
  <path class="cls-34" d="m39.88,44.66c1.96,2.81,6.23-.17,8.23,3.66-4.22.74-8.5,4.17-11.34-2.11,1.04-.52,2.07-1.03,3.11-1.55Z"/>
  <path class="cls-29" d="m126.94,43.81c-2.4-2.89-.85-6.23-.99-9.35-.24-5.22-.09-10.46-.1-15.7.3,0,.58.07.84.21,1.41,8.27.96,16.55.24,24.84Z"/>
  <path class="cls-30" d="m126.94,43.81c-.08-8.28-.16-16.56-.24-24.84,2.57,2.91,1.14,6.44,1.3,9.66.26,5.16-.06,10.34-.14,15.51-.33-.04-.64-.15-.92-.33Z"/>
  <path class="cls-31" d="m40.89,43.54c-.29.18-.6.27-.93.29.57-7.27-1.07-14.63.91-21.84.22.25.44.5.66.76-.23,6.93.91,13.9-.63,20.79Z"/>
  <path class="cls-7" d="m49.65,15.72c-6.09-2.23-6.82-1.62-7.58,6.29-.24.5-.5.52-.8.05,0,0-.41-.07-.41-.07.08-1.42.14-2.85.26-4.27.19-2.15,1.24-3.85,3.34-4.35,2.15-.51,4.33-.37,5.19,2.33Z"/>
  <path class="cls-3" d="m91.18,20.9c-5.85,0-11.7.01-17.56.02.73-.37,1.47-.74,2.2-1.1,5.06-.55,10.12-1.22,15.14.33.09.25.16.5.22.75Z"/>
  <path class="cls-5" d="m90.96,20.14c-5.05-.11-10.09-.22-15.14-.33,5.08-1.49,10.14-2.1,15.14.33Z"/>
  <path class="cls-34" d="m31.43,53.6c6.06,0,12.13,0,18.19,0,1.48,1.52,3.34,2.92,1.87,5.46-2.25.7-4.09,3.07-6.88.08-1.76-1.88-4.47-.77-5.71,1.94-3.08.36-6.39,2.52-8.96-1.14.76-2.05,1.56-4.1,1.48-6.35Z"/>
  <path class="cls-13" d="m29.95,59.94c2.72,2.53,5.98.74,8.96,1.14.28.48.56.96.85,1.44-3.91-.08-7.81-.17-11.72-.26.12-1.2.94-1.83,1.91-2.33Z"/>
  <path class="cls-32" d="m51.49,59.05c-.7-1.79-2.08-3.35-1.87-5.46,1.22-3.62,3.78-4.5,7.45-4.47,3.61.03,5.3,1.97,6.4,4.74,1.05,2.65-.47,4.95-2.18,6.7-2.1,2.15-4.74,2.36-7.31.53-.87-.62-1.66-1.36-2.48-2.05Z"/>
  <path class="cls-26" d="m111.58,58.74c-3.54,3.9-7.19,4.7-11.02.39-.8-.55-1.4-1.19-.96-2.27.44-7.02,1.46-7.79,9.9-7.47,4.21,2.33,2.84,5.91,2.08,9.35Z"/>
  <path class="cls-36" d="m85.59,73.04c-4.8.44-8.69-.39-8.87-6.39,2.72-2.15,6.18-1.63,8.68-.75,4.68,1.65,2.01,4.66.19,7.14Z"/>
  <path class="cls-23" d="m41.27,22.07c.27-.03.54-.05.8-.05.08,6.9.16,13.81.24,20.72-.47.27-.95.54-1.42.81.13-7.16.25-14.32.38-21.48Z"/>
  <path class="cls-34" d="m99.6,56.86c.32.76.64,1.51.96,2.27-1.05,1.08-1.82,2.86-3.82,1.51-.79-.53-1.34-1.34-1.11-2.23.58-2.24,2.53-1.3,3.97-1.54Z"/>
  <path class="cls-34" d="m61.41,65.96c2.14-1.87,3.36-3.41,5.53-3.51q-.7,3.51-5.53,3.51Z"/>
  <path class="cls-11" d="m111.58,58.74c.16-3.31.93-6.75-2.08-9.35,5.56,2.03,3.65,5.73,2.08,9.35Z"/>
</svg>