<?xml version="1.0" encoding="UTF-8"?>
<svg id="Layer_1" data-name="Layer 1" xmlns="http://www.w3.org/2000/svg" viewBox="0 0 137.96 69.34">
  <defs>
    <style>
      .cls-1 {
        fill: #29414f;
      }
    </style>
  </defs>
  <path class="cls-1" d="m69.75,68.09c-1.65,0-3.26-.26-4.8-.78-1.55-.52-2.85-1.21-3.88-2.08L3.99,17.41c-2.27-1.91-3.41-4.33-3.41-7.28S1.72,4.76,3.99,2.86C6.26.95,9.16,0,12.68,0s6.41.95,8.68,2.86l48.39,40.54L118.14,2.86c2.27-1.91,5.17-2.86,8.68-2.86s6.41.95,8.69,2.86c2.27,1.91,3.41,4.33,3.41,7.28s-1.14,5.37-3.41,7.28l-57.07,47.82c-1.24,1.04-2.58,1.77-4.03,2.2-1.45.44-3,.66-4.65.66Z"/>
</svg>