<?xml version="1.0" encoding="UTF-8"?>
<svg id="Layer_1" data-name="Layer 1" xmlns="http://www.w3.org/2000/svg" viewBox="0 0 179 175.15">
  <defs>
    <style>
      .cls-1 {
        fill: #29414f;
      }
    </style>
  </defs>
  <path class="cls-1" d="m89.27,175.15c-11.65,0-22.67-2.3-33.04-6.9-10.38-4.6-19.44-10.88-27.18-18.83-7.74-7.95-13.85-17.25-18.33-27.91-4.48-10.65-6.72-21.97-6.71-33.93,0-12.11,2.24-23.46,6.72-34.05,4.48-10.58,10.59-19.85,18.33-27.8,7.74-7.96,16.8-14.23,27.17-18.83C66.59,2.31,77.6,0,89.27,0c11.79,0,22.85,2.3,33.15,6.9,10.31,4.6,19.33,10.88,27.06,18.83,7.75,7.95,13.86,17.22,18.33,27.8,4.48,10.58,6.72,21.93,6.72,34.04v12.7c0,8.61-2.88,15.95-8.63,22.01-5.75,6.06-12.83,9.09-21.22,9.08-5.12,0-9.88-1.17-14.28-3.5-4.41-2.34-8.03-5.4-10.87-9.2-3.83,3.94-8.35,7.04-13.54,9.31-5.19,2.27-10.77,3.4-16.73,3.39-11.79,0-21.85-4.27-30.17-12.81-8.32-8.54-12.47-18.87-12.47-30.97,0-12.11,4.16-22.44,12.48-30.98,8.31-8.54,18.37-12.81,30.16-12.8,11.79,0,21.85,4.27,30.17,12.81,8.32,8.54,12.47,18.87,12.47,30.97v12.7c0,4.23,1.28,7.55,3.83,9.96,2.56,2.41,5.54,3.61,8.96,3.62,3.41,0,6.39-1.21,8.95-3.62,2.56-2.41,3.84-5.73,3.84-9.96v-12.7c0-19.12-6.72-35.58-20.15-49.37-13.43-13.8-29.45-20.69-48.06-20.68-18.62,0-34.64,6.9-48.07,20.69-13.44,13.8-20.15,30.25-20.14,49.37,0,19.12,6.72,35.58,20.15,49.37,13.43,13.8,29.45,20.69,48.06,20.68h42.63v17.51h-42.63Zm0-61.3c7.11,0,13.15-2.55,18.12-7.66,4.97-5.11,7.46-11.31,7.46-18.61s-2.49-13.5-7.46-18.61c-4.97-5.11-11.01-7.66-18.12-7.66s-13.15,2.55-18.12,7.66c-4.97,5.11-7.46,11.31-7.46,18.61s2.49,13.5,7.46,18.61c4.97,5.11,11.01,7.66,18.12,7.66Z"/>
</svg>