<?xml version="1.0" encoding="UTF-8"?>
<svg id="Layer_1" data-name="Layer 1" xmlns="http://www.w3.org/2000/svg" viewBox="0 0 179 175.15">
  <defs>
    <style>
      .cls-1 {
        fill: #5a686f;
      }
    </style>
  </defs>
  <path class="cls-1" d="m39.11,126.05c-9.45,0-17.13-2.96-22.89-8.83-5.76-5.87-9.54-14.59-11.74-27.27-3.24-18.69-.03-34.44,9.06-44.36,5.35-5.84,12.37-9.21,20.3-9.76,6.79-.47,16.94,1.92,26.74,15.93,6.14,8.78,10.81,20.44,12.81,31.99,2.42,13.95.62,24.21-5.51,31.38-4.86,5.69-12.34,9.22-22.23,10.5-2.16.27-4.34.41-6.53.41Zm16.37,48.79c-5.52,0-11.11-1.53-16.15-4.48-7.27-4.27-12.3-10.85-14.01-18.32-1.19-5.31-.48-9.53,2.18-12.91,4.32-5.49,12.06-6.72,20.26-8.03.86-.14,1.74-.27,2.63-.42,1.89-.31,3.82-.72,5.69-1.13,7.01-1.5,14.26-3.05,20.25.63,4.01,2.46,6.27,6.65,6.94,12.79.77,7.09-.99,14.16-4.94,19.92-4.26,6.2-10.64,10.29-17.97,11.54-1.61.27-3.25.41-4.89.41Zm85.72-83.56c-2.18,0-4.36-.15-6.52-.43-9.89-1.27-17.36-4.8-22.23-10.5-6.12-7.17-7.94-17.43-5.51-31.38,2-11.56,6.66-23.21,12.76-31.96,9.75-13.97,19.91-16.39,26.74-15.96,7.91.5,14.91,3.83,20.27,9.63,9.15,9.91,12.39,25.71,9.13,44.49-2.2,12.68-5.93,21.35-11.74,27.27-5.81,5.92-13.46,8.85-22.91,8.85Zm-16.37,48.79c-1.64,0-3.27-.14-4.88-.41-7.34-1.25-13.72-5.34-17.97-11.54-3.96-5.76-5.71-12.83-4.94-19.92.67-6.16,2.92-10.33,6.94-12.79,5.99-3.68,13.24-2.13,20.25-.63,1.87.4,3.8.81,5.69,1.13l2.63.42c8.2,1.31,15.95,2.54,20.26,8.03,2.66,3.38,3.37,7.61,2.18,12.91-1.7,7.47-6.73,14.06-14,18.33-5.07,2.95-10.66,4.48-16.17,4.48Z"/>
</svg>