<?xml version="1.0" encoding="UTF-8"?>
<svg id="Layer_1" data-name="Layer 1" xmlns="http://www.w3.org/2000/svg" viewBox="0 0 179 175.15">
  <defs>
    <style>
      .cls-1 {
        fill: #29414f;
      }
    </style>
  </defs>
  <path class="cls-1" d="m53.65.99h73.07c27.83,0,50.45,22.62,50.45,50.45v73.07c0,13.38-5.32,26.21-14.78,35.67-9.46,9.46-22.29,14.78-35.67,14.78H53.65c-27.83,0-50.45-22.62-50.45-50.45V51.44c0-13.38,5.32-26.21,14.78-35.67C27.44,6.31,40.27.99,53.65.99Zm-1.74,17.4c-8.3,0-16.27,3.3-22.14,9.17-5.87,5.87-9.17,13.84-9.17,22.14v76.55c0,17.31,14,31.31,31.31,31.31h76.55c8.3,0,16.27-3.3,22.14-9.17,5.87-5.87,9.17-13.84,9.17-22.14V49.7c0-17.31-14-31.31-31.31-31.31H51.91Zm83.94,13.05c2.88,0,5.65,1.15,7.69,3.18,2.04,2.04,3.18,4.8,3.18,7.69s-1.15,5.65-3.18,7.69c-2.04,2.04-4.8,3.18-7.69,3.18s-5.65-1.15-7.69-3.18c-2.04-2.04-3.18-4.81-3.18-7.69s1.15-5.65,3.18-7.69,4.8-3.18,7.69-3.18Zm-45.67,13.05c11.53,0,22.6,4.58,30.75,12.74,8.16,8.16,12.74,19.22,12.74,30.75s-4.58,22.6-12.74,30.75c-8.16,8.15-19.22,12.74-30.75,12.74s-22.6-4.58-30.75-12.74c-8.16-8.16-12.74-19.22-12.74-30.75s4.58-22.6,12.74-30.75c8.16-8.15,19.22-12.74,30.75-12.74Zm0,17.4c-6.92,0-13.56,2.75-18.45,7.65-4.89,4.89-7.64,11.53-7.64,18.45s2.75,13.56,7.64,18.45c4.89,4.89,11.53,7.65,18.45,7.65s13.56-2.75,18.45-7.65c4.89-4.89,7.64-11.53,7.64-18.45s-2.75-13.56-7.64-18.45c-4.89-4.89-11.53-7.65-18.45-7.65Z"/>
</svg>