<?xml version="1.0" encoding="UTF-8"?>
<svg id="Layer_1" data-name="Layer 1" xmlns="http://www.w3.org/2000/svg" viewBox="0 0 179 175.15">
  <defs>
    <style>
      .cls-1 {
        fill: #f5936f;
        opacity: .3;
      }

      .cls-1, .cls-2 {
        stroke: #f5936f;
        stroke-linecap: round;
        stroke-linejoin: round;
        stroke-width: 15px;
      }

      .cls-2 {
        fill: none;
      }
    </style>
  </defs>
  <path class="cls-2" d="m52.24,24.34c-25.25,0-45.72,20.47-45.72,45.72,0,45.72,54.03,87.28,83.13,96.95,29.09-9.67,83.13-51.23,83.13-96.95,0-25.25-20.47-45.72-45.72-45.72-15.46,0-29.13,7.68-37.41,19.43-8.27-11.75-21.94-19.43-37.41-19.43Z"/>
  <path class="cls-1" d="m52.45,24.34c-25.25,0-45.72,20.47-45.72,45.72,0,45.72,54.03,87.28,83.13,96.95,29.09-9.67,83.13-51.23,83.13-96.95,0-25.25-20.47-45.72-45.72-45.72-15.46,0-29.13,7.68-37.41,19.43-8.27-11.75-21.94-19.43-37.41-19.43Z"/>
</svg>