<?xml version="1.0" encoding="UTF-8"?>
<svg id="Layer_1" data-name="Layer 1" xmlns="http://www.w3.org/2000/svg" viewBox="0 0 179 175.15">
  <defs>
    <style>
      .cls-1 {
        fill: #fef5f5;
      }
    </style>
  </defs>
  <path class="cls-1" d="m66.82,171.92l-3.36-27.03c-1.82-.7-3.54-1.55-5.15-2.53-1.61-.99-3.19-2.04-4.72-3.17l-25,10.56L5.48,109.63l21.64-16.47c-.14-.99-.21-1.94-.21-2.85v-5.69c0-.92.07-1.87.21-2.85l-21.64-16.47L28.59,25.17l25,10.56c1.54-1.13,3.15-2.18,4.83-3.17,1.68-.99,3.36-1.83,5.04-2.53l3.36-27.03h46.22l3.36,27.03c1.82.7,3.54,1.55,5.15,2.53,1.61.99,3.19,2.04,4.72,3.17l25-10.56,23.11,40.12-21.64,16.47c.14.99.21,1.94.21,2.85v5.69c0,.92-.14,1.87-.42,2.85l21.64,16.47-23.11,40.12-24.79-10.56c-1.54,1.13-3.15,2.18-4.83,3.17-1.68.99-3.36,1.83-5.04,2.53l-3.36,27.03h-46.22Zm23.53-54.9c8.12,0,15.06-2.89,20.8-8.66,5.74-5.77,8.61-12.74,8.61-20.9s-2.87-15.13-8.61-20.9c-5.74-5.77-12.68-8.66-20.8-8.66s-15.23,2.89-20.91,8.66c-5.68,5.77-8.51,12.74-8.5,20.9,0,8.16,2.83,15.13,8.5,20.9,5.67,5.77,12.64,8.66,20.91,8.66Z"/>
</svg>