<?xml version="1.0" encoding="UTF-8"?>
<svg id="Layer_1" data-name="Layer 1" xmlns="http://www.w3.org/2000/svg" viewBox="0 0 179 175.15">
  <defs>
    <style>
      .cls-1, .cls-2 {
        fill: #feffff;
      }

      .cls-3 {
        fill: #606161;
      }

      .cls-2 {
        fill-rule: evenodd;
      }
    </style>
  </defs>
  <path class="cls-3" d="m79.78,139.01c58.93,0,92.56,3.73,92.56-42.42s34.71-32.19-48.85-73.32C64.56,23.27.08,60.68.08,106.83s20.77,32.19,79.7,32.19Z"/>
  <path class="cls-2" d="m46.36,58.09c0-.7.28-1.36.78-1.86.5-.49,1.18-.77,1.89-.77h2.67c11.78,0,20.47,6.51,26.07,12.7,2.62,2.9,4.63,5.79,6.02,8.04,1.39-2.26,3.4-5.15,6.02-8.04,5.6-6.19,14.29-12.7,26.07-12.7v5.25c-9.62,0-16.97,5.3-22.07,10.93-2.76,3.06-5.12,6.45-7.05,10.07,1.92,3.62,4.29,7.01,7.05,10.07,5.11,5.63,12.47,10.93,22.08,10.93v5.25c-11.78,0-20.47-6.51-26.07-12.7-2.25-2.5-4.27-5.19-6.02-8.04-1.39,2.26-3.4,5.15-6.02,8.04-5.6,6.19-14.29,12.7-26.07,12.7h-2.67c-.71,0-1.39-.28-1.89-.77-.5-.49-.78-1.16-.78-1.86s.28-1.36.78-1.86c.5-.49,1.18-.77,1.89-.77h2.67c9.62,0,16.97-5.3,22.07-10.93,2.76-3.06,5.12-6.45,7.05-10.07-1.92-3.62-4.29-7.01-7.05-10.07-5.11-5.63-12.47-10.93-22.08-10.93h-2.67c-.71,0-1.39-.28-1.89-.77-.5-.49-.78-1.16-.78-1.86Z"/>
  <path class="cls-1" d="m115.91,68.41v-20.65c0-.25.07-.49.21-.7.14-.21.33-.38.56-.48.23-.11.49-.15.74-.11.25.03.49.13.68.29l12.63,10.32c.64.53.64,1.49,0,2.02l-12.63,10.32c-.2.16-.43.26-.68.29s-.51,0-.74-.11c-.23-.11-.43-.27-.56-.48-.14-.21-.21-.45-.21-.7Zm0,47.26v-20.65c0-.25.07-.49.21-.7.14-.21.33-.38.56-.48s.49-.15.74-.11c.25.03.49.13.68.29l12.63,10.32c.64.53.64,1.49,0,2.02l-12.63,10.32c-.2.16-.43.26-.68.29-.25.03-.51,0-.74-.11-.23-.11-.43-.27-.56-.48-.14-.21-.21-.45-.21-.7Z"/>
</svg>