<?xml version="1.0" encoding="UTF-8"?>
<svg id="Layer_1" data-name="Layer 1" xmlns="http://www.w3.org/2000/svg" viewBox="0 0 179 175.15">
  <defs>
    <style>
      .cls-1 {
        fill: #29414f;
      }
    </style>
  </defs>
  <path class="cls-1" d="m177.77,30.64c-6.51,2.99-13.53,4.95-20.81,5.89,7.44-4.53,13.19-11.7,15.9-20.32-7.02,4.27-14.8,7.26-23.01,8.97-6.68-7.34-16.07-11.61-26.73-11.61-19.88,0-36.11,16.4-36.11,36.64,0,2.9.34,5.72.93,8.37-30.11-1.54-56.92-16.14-74.77-38.26-3.13,5.38-4.91,11.7-4.91,18.36,0,12.72,6.34,24,16.15,30.4-6,0-11.59-1.71-16.49-4.27v.26c0,17.76,12.52,32.62,29.09,35.95-5.32,1.47-10.91,1.68-16.32.6,2.3,7.28,6.8,13.65,12.86,18.21,6.07,4.56,13.4,7.09,20.97,7.23-12.83,10.25-28.72,15.79-45.08,15.71-2.88,0-5.75-.17-8.63-.51,16.07,10.42,35.18,16.48,55.65,16.48,66.65,0,103.27-55.85,103.27-104.27,0-1.62,0-3.16-.08-4.78,7.1-5.12,13.19-11.61,18.1-19.04Z"/>
</svg>