<?xml version="1.0" encoding="UTF-8"?>
<svg id="Layer_1" data-name="Layer 1" xmlns="http://www.w3.org/2000/svg" viewBox="0 0 179 120.01">
  <defs>
    <style>
      .cls-1 {
        fill: #fef5f5;
      }
    </style>
  </defs>
  <path class="cls-1" d="m88.77,88.99c4.58-3.5,9.7-6.27,15.36-8.29,5.66-2.02,11.59-3.03,17.78-3.03,6.2,0,12.12,1.01,17.78,3.03,5.66,2.02,10.78,4.78,15.36,8.28,3.14-3.68,5.59-7.86,7.34-12.53,1.75-4.67,2.63-9.65,2.62-14.95,0-11.94-4.2-22.12-12.59-30.51-8.39-8.4-18.57-12.6-30.51-12.59-11.94,0-22.12,4.2-30.51,12.59-8.4,8.39-12.6,18.57-12.59,30.51,0,5.3.88,10.28,2.63,14.95,1.75,4.67,4.2,8.85,7.34,12.53Zm33.14-22.09c-5.3,0-9.77-1.82-13.41-5.45-3.64-3.63-5.46-8.1-5.45-13.41,0-5.3,1.82-9.77,5.45-13.41,3.63-3.64,8.1-5.46,13.41-5.45,5.3,0,9.77,1.82,13.41,5.45,3.64,3.63,5.46,8.1,5.45,13.41,0,5.3-1.82,9.77-5.45,13.41-3.63,3.64-8.1,5.46-13.41,5.45Zm0,48.5c-7.45,0-14.46-1.42-21.01-4.25-6.56-2.83-12.26-6.67-17.11-11.52-4.85-4.85-8.69-10.55-11.52-17.11-2.83-6.56-4.24-13.56-4.25-21.01,0-7.45,1.42-14.46,4.25-21.01,2.83-6.56,6.67-12.26,11.52-17.11,4.85-4.85,10.55-8.69,17.11-11.52,6.56-2.83,13.56-4.24,21.01-4.25,7.45,0,14.46,1.42,21.01,4.25,6.56,2.83,12.26,6.67,17.11,11.52,4.85,4.85,8.69,10.55,11.52,17.11,2.83,6.56,4.24,13.56,4.24,21.01,0,7.45-1.42,14.46-4.25,21.01-2.83,6.56-6.67,12.26-11.52,17.11-4.85,4.85-10.55,8.69-17.11,11.52-6.56,2.83-13.56,4.24-21.01,4.24Z"/>
</svg>