<?xml version="1.0" encoding="UTF-8"?>
<svg id="Layer_1" data-name="Layer 1" xmlns="http://www.w3.org/2000/svg" viewBox="0 0 179 175.15">
  <defs>
    <style>
      .cls-1 {
        fill: none;
        stroke: #5a686f;
        stroke-linecap: round;
        stroke-linejoin: round;
        stroke-width: 4px;
      }

      .cls-2 {
        fill: #29414f;
      }
    </style>
  </defs>
  <path class="cls-2" d="m87.38,126.6h11.48v-11.94h11.48v-11.94h-11.48v-11.94h-11.48v11.94h-11.48v11.94h11.48v11.94Zm34.44-20.9h34.44v-8.96h-34.44v8.96Zm0,17.91h22.96v-8.96h-22.96v8.96Zm-51.65,26.87c-3.16,0-5.86-1.17-8.11-3.51-2.25-2.34-3.37-5.15-3.37-8.43v-65.67c0-3.28,1.12-6.1,3.37-8.44,2.25-2.34,4.95-3.51,8.1-3.5h28.7v-17.91c0-3.28,1.12-6.1,3.37-8.44,2.25-2.34,4.95-3.51,8.1-3.5h11.48c3.16,0,5.86,1.17,8.11,3.51,2.25,2.34,3.37,5.15,3.37,8.43v17.91h28.7c3.16,0,5.86,1.17,8.11,3.51,2.25,2.34,3.37,5.15,3.37,8.43v65.67c0,3.28-1.12,6.1-3.37,8.44-2.25,2.34-4.95,3.51-8.1,3.5h-91.83Zm40.17-77.61h11.48v-29.85h-11.48v29.85Z"/>
  <path class="cls-1" d="m57.59,19.52c.42,0,.83.17,1.13.48.3.3.47.72.47,1.15v7.38l6.28-3.69c.37-.22.8-.27,1.21-.16.41.11.76.38.97.76l1.6,2.82c.21.37.27.82.16,1.23-.11.42-.38.77-.75.99l-6.28,3.69,6.28,3.69c.37.22.64.57.75.99.11.42.05.86-.16,1.23l-1.6,2.82c-.21.37-.56.65-.97.76s-.85.05-1.21-.16l-6.28-3.69v7.38c0,.43-.17.85-.47,1.15-.3.3-.71.48-1.13.48h-3.2c-.42,0-.83-.17-1.13-.48-.3-.3-.47-.72-.47-1.15v-7.38l-6.28,3.69c-.37.22-.8.27-1.21.16-.41-.11-.76-.38-.97-.76l-1.6-2.82c-.21-.37-.27-.82-.16-1.23.11-.42.38-.77.75-.99l6.28-3.69-6.28-3.69c-.37-.22-.64-.57-.75-.99-.11-.42-.05-.86.16-1.23l1.6-2.82c.21-.37.56-.65.97-.76.41-.11.85-.05,1.21.16l6.28,3.69v-7.38c0-.43.17-.84.47-1.15.3-.3.71-.48,1.13-.48h3.2Z"/>
  <path class="cls-1" d="m26.21,51.11c.58,0,1.14.23,1.55.64.41.41.64.96.64,1.54v9.9l8.62-4.95c.5-.29,1.1-.37,1.66-.22s1.04.52,1.33,1.02l2.19,3.78c.29.5.37,1.1.22,1.66-.15.56-.52,1.04-1.02,1.33l-8.61,4.95,8.61,4.95c.5.29.87.77,1.02,1.33.15.56.07,1.15-.22,1.66l-2.19,3.78c-.29.5-.77.87-1.33,1.02-.56.15-1.16.07-1.66-.22l-8.62-4.95v9.9c0,.58-.23,1.13-.64,1.54-.41.41-.97.64-1.55.64h-4.39c-.58,0-1.14-.23-1.55-.64-.41-.41-.64-.96-.64-1.54v-9.9l-8.62,4.95c-.5.29-1.1.37-1.66.22-.56-.15-1.04-.52-1.33-1.02l-2.19-3.78c-.29-.5-.37-1.1-.22-1.66.15-.56.52-1.04,1.02-1.33l8.61-4.95-8.61-4.95c-.5-.29-.87-.77-1.02-1.33-.15-.56-.07-1.15.22-1.66l2.19-3.78c.29-.5.77-.87,1.33-1.02.56-.15,1.16-.07,1.66.22l8.62,4.95v-9.9c0-.58.23-1.13.64-1.54.41-.41.97-.64,1.55-.64h4.39Z"/>
</svg>