<?xml version="1.0" encoding="UTF-8"?>
<svg id="Layer_1" data-name="Layer 1" xmlns="http://www.w3.org/2000/svg" viewBox="0 0 179 175.15">
  <defs>
    <style>
      .cls-1 {
        fill: #29414f;
      }
    </style>
  </defs>
  <path class="cls-1" d="m96.24,88.87l16.17,16.61c1.32,1.35,1.98,3.05,1.98,5.08s-.66,3.78-1.98,5.26c-1.44,1.48-3.14,2.21-5.12,2.21s-3.68-.74-5.12-2.21l-15.27-15.69c-1.68-1.72-2.93-3.63-3.77-5.72s-1.26-4.37-1.26-6.83v-22.15c0-2.09.69-3.85,2.07-5.26s3.09-2.12,5.12-2.12c2.04,0,3.75.71,5.12,2.13s2.07,3.17,2.06,5.26v23.44Zm-7.19-60.35c2.04,0,3.75.71,5.12,2.13s2.07,3.17,2.06,5.26c0,2.09-.69,3.85-2.07,5.26s-3.09,2.12-5.12,2.12c-2.04,0-3.75-.71-5.12-2.13s-2.07-3.17-2.06-5.26c0-2.09.69-3.85,2.07-5.26s3.09-2.12,5.12-2.12Zm57.51,59.06c0,2.09-.69,3.85-2.07,5.26s-3.09,2.12-5.12,2.12c-2.04,0-3.75-.71-5.12-2.13s-2.07-3.17-2.06-5.26c0-2.09.69-3.85,2.07-5.26,1.38-1.42,3.09-2.12,5.12-2.12,2.04,0,3.75.71,5.12,2.13s2.07,3.17,2.06,5.26Zm-57.51,44.29c2.04,0,3.75.71,5.12,2.13s2.07,3.17,2.06,5.26c0,2.09-.69,3.85-2.07,5.26-1.38,1.41-3.09,2.12-5.12,2.12-2.04,0-3.75-.71-5.12-2.13s-2.07-3.17-2.06-5.26c0-2.09.69-3.85,2.07-5.26,1.38-1.42,3.09-2.12,5.12-2.12Zm-43.13-44.29c0,2.09-.69,3.85-2.07,5.26-1.38,1.42-3.09,2.12-5.12,2.12-2.04,0-3.75-.71-5.12-2.13s-2.07-3.17-2.06-5.26c0-2.09.69-3.85,2.07-5.26s3.09-2.12,5.12-2.12c2.04,0,3.75.71,5.12,2.13s2.07,3.17,2.06,5.26Zm43.13,73.82c-9.94,0-19.29-1.94-28.03-5.82-8.75-3.88-16.35-9.14-22.82-15.78-6.47-6.64-11.59-14.46-15.36-23.44-3.77-8.98-5.66-18.58-5.67-28.79,0-10.21,1.89-19.81,5.67-28.79,3.78-8.98,8.89-16.8,15.36-23.44,6.47-6.64,14.08-11.9,22.82-15.78,8.75-3.87,18.09-5.81,28.03-5.82,9.94,0,19.29,1.94,28.03,5.82,8.75,3.88,16.35,9.14,22.82,15.78,6.47,6.64,11.59,14.46,15.37,23.44,3.78,8.98,5.66,18.58,5.66,28.79,0,10.21-1.89,19.81-5.67,28.79-3.78,8.98-8.89,16.8-15.36,23.44-6.47,6.64-14.08,11.91-22.82,15.79-8.75,3.88-18.09,5.81-28.03,5.81Zm0-14.76c16.05,0,29.65-5.72,40.79-17.16,11.14-11.44,16.71-25.41,16.71-41.9s-5.57-30.45-16.71-41.9c-11.14-11.44-24.74-17.16-40.79-17.16s-29.65,5.72-40.79,17.16c-11.14,11.44-16.71,25.41-16.71,41.9s5.57,30.45,16.71,41.9c11.14,11.44,24.74,17.16,40.79,17.16Z"/>
</svg>