<?xml version="1.0" encoding="UTF-8"?>
<svg id="Layer_1" data-name="Layer 1" xmlns="http://www.w3.org/2000/svg" viewBox="0 0 179 175.15">
  <defs>
    <style>
      .cls-1 {
        fill: #29414f;
      }
    </style>
  </defs>
  <path class="cls-1" d="m98.22,89.07l18.97,19.48c1.55,1.59,2.32,3.57,2.32,5.96s-.77,4.44-2.32,6.17c-1.69,1.73-3.69,2.6-6.01,2.6s-4.32-.87-6-2.6l-17.92-18.4c-1.97-2.02-3.44-4.26-4.43-6.71s-1.48-5.12-1.48-8.01v-25.98c0-2.45.81-4.51,2.43-6.17s3.62-2.49,6-2.49c2.39,0,4.39.83,6.01,2.49s2.42,3.72,2.42,6.17v27.49Zm-8.43-70.79c2.39,0,4.39.83,6.01,2.49s2.42,3.72,2.42,6.17c0,2.45-.81,4.51-2.43,6.17s-3.62,2.49-6,2.49c-2.39,0-4.39-.83-6.01-2.49s-2.42-3.72-2.42-6.17c0-2.45.81-4.51,2.43-6.17s3.62-2.49,6-2.49Zm67.45,69.28c0,2.45-.81,4.51-2.43,6.17s-3.62,2.49-6,2.49c-2.39,0-4.39-.83-6.01-2.49s-2.42-3.72-2.42-6.17c0-2.45.81-4.51,2.43-6.17,1.62-1.66,3.62-2.49,6-2.49,2.39,0,4.39.83,6.01,2.49s2.42,3.72,2.42,6.17Zm-67.45,51.96c2.39,0,4.39.83,6.01,2.49s2.42,3.72,2.42,6.17c0,2.45-.81,4.51-2.43,6.18-1.62,1.66-3.62,2.49-6,2.48-2.39,0-4.39-.83-6.01-2.49s-2.42-3.72-2.42-6.17c0-2.45.81-4.51,2.43-6.17,1.62-1.66,3.62-2.49,6-2.49Zm-50.59-51.96c0,2.45-.81,4.51-2.43,6.17-1.62,1.66-3.62,2.49-6,2.49-2.39,0-4.39-.83-6.01-2.49s-2.42-3.72-2.42-6.17c0-2.45.81-4.51,2.43-6.17s3.62-2.49,6-2.49c2.39,0,4.39.83,6.01,2.49s2.42,3.72,2.42,6.17Zm50.59,86.6c-11.66,0-22.62-2.27-32.88-6.82-10.26-4.55-19.18-10.72-26.77-18.51-7.59-7.79-13.6-16.96-18.02-27.49-4.43-10.54-6.64-21.79-6.65-33.77,0-11.98,2.22-23.24,6.65-33.77,4.43-10.54,10.43-19.7,18.02-27.49,7.59-7.79,16.51-13.96,26.77-18.51C67.16,3.23,78.12.96,89.79.95c11.66,0,22.62,2.27,32.88,6.82,10.26,4.55,19.18,10.72,26.77,18.51,7.59,7.79,13.6,16.96,18.03,27.49,4.43,10.54,6.64,21.79,6.64,33.77,0,11.98-2.22,23.24-6.65,33.77-4.43,10.54-10.43,19.7-18.02,27.49-7.59,7.79-16.51,13.97-26.77,18.52-10.26,4.55-21.22,6.82-32.88,6.81Zm0-17.32c18.83,0,34.78-6.71,47.85-20.13,13.07-13.42,19.6-29.8,19.6-49.14s-6.54-35.72-19.6-49.14c-13.07-13.42-29.02-20.13-47.85-20.13s-34.78,6.71-47.85,20.13c-13.07,13.42-19.6,29.8-19.6,49.14s6.54,35.72,19.6,49.14c13.07,13.42,29.02,20.13,47.85,20.13Z"/>
</svg>