<?xml version="1.0" encoding="UTF-8"?>
<svg id="Layer_1" data-name="Layer 1" xmlns="http://www.w3.org/2000/svg" xmlns:xlink="http://www.w3.org/1999/xlink" viewBox="0 0 150 75">
  <defs>
    <style>
      .cls-1, .cls-2 {
        fill: #f8f0f0;
      }

      .cls-3 {
        fill: #d09568;
      }

      .cls-4 {
        stroke: #f8f0f0;
        stroke-miterlimit: 10;
      }

      .cls-4, .cls-5 {
        fill: none;
      }

      .cls-2 {
        opacity: .99;
      }

      .cls-6 {
        filter: url(#luminosity-noclip);
      }

      .cls-7 {
        mask: url(#mask);
      }
      svg {
      filter: drop-shadow(3px 5px 2px rgb(0 0 0 / 0.4));
    }
    svg {
      filter: url(#shadow);
}
      
      
    </style>
    <filter id="luminosity-noclip" x="47.84" y="3.04" width="99.52" height="67.87" color-interpolation-filters="sRGB" filterUnits="userSpaceOnUse">
      <feFlood flood-color="#fff" result="bg"/>
      <feBlend in="SourceGraphic" in2="bg"/>
    </filter>
    <mask id="mask" x="47.84" y="3.04" width="99.52" height="67.87" maskUnits="userSpaceOnUse">
      <g class="cls-6">
        <path d="m71.68,18.42c0-1.61-.21-2.98-.63-4.1-.42-1.12-.96-2.05-1.64-2.78s-1.44-1.31-2.29-1.72c-.85-.42-1.7-.73-2.56-.92-.86-.2-1.68-.32-2.47-.36-.79-.04-1.46-.07-2-.07-.7,0-1.59.03-2.67.08-1.08.05-2.18.18-3.31.38.04.46.08.99.1,1.62.02.62.04,1.29.07,2.01.02.72.04,1.46.05,2.22s.03,1.5.04,2.22c.03,1.7.04,3.48.04,5.34-.01,1.93-.04,3.96-.09,6.06-.03.91-.05,1.88-.08,2.9-.02,1.03-.05,2.09-.1,3.2-.04,1.11-.1,2.23-.15,3.38-.06,1.15-.12,2.3-.2,3.44.12,0,.26,0,.44-.02.15,0,.33,0,.55-.01.22,0,.48-.01.77-.01.54,0,1.17.01,1.89.04.72.03,1.51.09,2.37.18-.09-1.07-.16-2.14-.21-3.22-.05-1.08-.09-2.11-.12-3.1-.03-.99-.05-1.9-.05-2.75,0-.84-.01-1.57-.01-2.19h.44c1.38,0,2.76-.26,4.15-.77,1.39-.51,2.65-1.27,3.79-2.26,1.13-1,2.06-2.23,2.77-3.7.71-1.47,1.07-3.17,1.09-5.09Zm-6.08,3.46c-.27.99-.68,1.84-1.23,2.56-.55.72-1.23,1.29-2.05,1.71-.82.43-1.78.67-2.88.73.01-.73.03-1.67.04-2.82.01-1.15.04-2.4.07-3.74.03-1.34.06-2.72.1-4.14.04-1.42.08-2.78.14-4.07,1.07.06,2,.22,2.78.48.78.26,1.43.65,1.93,1.16.51.51.88,1.17,1.13,1.97.25.8.37,1.75.37,2.87,0,1.2-.13,2.3-.41,3.29Zm65.23,12.35c.15-.33.23-.62.25-.88.02-.26.03-.39.03-.41,0-.78-.12-1.42-.36-1.94-.24-.52-.55-.93-.93-1.24-.38-.31-.8-.53-1.25-.66-.45-.13-.89-.2-1.32-.2s-.86.08-1.34.23c-.48.15-.94.42-1.36.8-.43.38-.78.89-1.07,1.52-.29.63-.43,1.41-.43,2.35,0,1.22.23,2.28.69,3.19.46.91,1.08,1.66,1.86,2.26.78.6,1.67,1.05,2.69,1.35,1.02.3,2.08.45,3.17.45s2.11-.13,3.17-.4c1.06-.26,2.03-.72,2.91-1.37.88-.65,1.62-1.52,2.23-2.61.61-1.09.99-2.46,1.13-4.12.03-.21.04-.4.04-.58v-.54c0-1.01-.13-1.95-.4-2.82-.26-.87-.67-1.7-1.22-2.49-.55-.79-1.25-1.56-2.11-2.31-.86-.75-1.88-1.49-3.07-2.24-1.01-.64-1.88-1.24-2.6-1.78-.72-.54-1.32-1.08-1.79-1.6s-.81-1.07-1.03-1.64c-.22-.56-.33-1.2-.33-1.9,0-.6.11-1.12.33-1.57.22-.45.5-.82.85-1.11.34-.29.73-.51,1.14-.66.42-.15.83-.22,1.24-.22.21.01.42.05.64.11.19.06.4.15.62.26s.45.28.68.48c-.23.29-.41.6-.53.92s-.21.62-.26.9c-.06.32-.09.65-.11.97,0,.51.1.96.31,1.34s.46.7.78.97c.31.26.66.46,1.04.59.38.13.75.2,1.1.2.28,0,.65-.04,1.11-.12.46-.08.92-.27,1.36-.56.45-.29.83-.73,1.15-1.3s.48-1.35.48-2.33-.22-1.84-.67-2.63c-.45-.78-1.05-1.46-1.8-2.02-.75-.56-1.63-1-2.63-1.3-1-.3-2.04-.45-3.14-.45s-2.18.19-3.25.57c-1.07.38-2.03.95-2.87,1.71-.84.76-1.53,1.71-2.05,2.84-.53,1.14-.79,2.46-.79,3.97,0,1.01.13,1.93.41,2.77.27.83.63,1.59,1.08,2.27.45.68.95,1.29,1.51,1.82.56.53,1.12,1.01,1.69,1.43.57.42,1.12.78,1.65,1.08.53.3.98.56,1.36.78.57.34,1.16.71,1.77,1.13.61.42,1.16.9,1.65,1.45.49.55.89,1.18,1.21,1.9.31.72.47,1.54.47,2.46,0,.79-.15,1.45-.45,1.97-.3.52-.67.94-1.1,1.25-.43.31-.89.54-1.38.67-.49.13-.93.2-1.31.2s-.85-.13-1.4-.38c-.55-.26-1.03-.64-1.44-1.15.57-.13,1.01-.36,1.31-.67.3-.31.52-.64.67-.97Zm-10.59-14.33c-.03-1.02-.07-2-.11-2.93-.04-.94-.09-1.82-.13-2.64-.1-1.92-.22-3.75-.35-5.49l-6.26-.15c.1.53.23,1.31.38,2.34.15,1.03.3,2.28.45,3.74.15,1.46.27,3.12.36,5,.1,1.88.14,3.92.14,6.13,0,1.42-.02,2.77-.07,4.03-.04,1.27-.14,2.38-.3,3.34-.15.96-.38,1.72-.68,2.27-.3.56-.7.83-1.2.83-.32,0-.62-.15-.89-.46-.27-.31-.51-.71-.72-1.22-.21-.51-.4-1.09-.57-1.76-.17-.67-.31-1.36-.42-2.08-.11-.72-.19-1.44-.24-2.17-.05-.72-.08-1.4-.08-2.03v-.56c0-.2,0-.49.01-.88,0-.39.02-.92.04-1.58.02-.67.06-1.55.12-2.66.06-1.11.13-2.49.22-4.14.09-1.65.2-3.66.33-6.02l-5.58-.22c.06,2.86.1,5.23.13,7.13.03,1.9.04,3.4.04,4.52,0,.56,0,1.03-.01,1.42,0,.39-.01.71-.01.96-.01.28-.02.5-.02.68,0,.54-.03,1.19-.09,1.93s-.14,1.52-.25,2.32c-.11.8-.25,1.59-.42,2.37-.17.78-.36,1.49-.57,2.11-.21.62-.45,1.12-.72,1.5-.27.38-.56.57-.87.57s-.59-.14-.8-.43c-.21-.29-.39-.68-.53-1.19-.14-.5-.25-1.09-.32-1.76-.07-.67-.13-1.38-.16-2.15-.04-.77-.06-1.56-.07-2.38,0-.82-.01-1.63-.01-2.44,0-1.05.02-2.11.07-3.18.04-1.06.1-2.09.17-3.1.07-1,.14-1.97.23-2.89s.18-1.79.26-2.59c.22-1.88.47-3.66.75-5.36l-6.44-.18c-.1,1.71-.19,3.54-.26,5.47-.03.82-.06,1.71-.1,2.67-.04.96-.07,1.96-.09,3-.02,1.04-.04,2.11-.06,3.22-.01,1.11-.02,2.22-.02,3.33,0,1.23.02,2.46.05,3.69.04,1.23.12,2.41.26,3.53.14,1.12.33,2.16.58,3.12.25.96.59,1.79,1.02,2.5.43.71.96,1.27,1.58,1.67.62.4,1.37.6,2.25.6.04,0,.19,0,.44-.02s.56-.06.92-.13.78-.2,1.24-.37c.46-.18.92-.43,1.37-.76.45-.33.89-.74,1.32-1.24.42-.5.79-1.12,1.1-1.87.26.79.59,1.46.99,2.01.4.55.81,1,1.25,1.35s.88.62,1.31.81c.43.19.82.33,1.18.42s.64.14.87.15c.23.01.35.02.38.02,1.44,0,2.64-.42,3.63-1.25.98-.83,1.77-1.96,2.37-3.38s1.03-3.06,1.3-4.92.4-3.82.4-5.89c0-1.05-.01-2.11-.03-3.18-.02-1.06-.05-2.1-.08-3.12Zm-29.65-4.76c-.23-1.05-.54-2.04-.94-2.94-.4-.91-.92-1.7-1.56-2.37-.64-.67-1.41-1.21-2.32-1.59-.91-.39-1.98-.58-3.21-.58s-2.41.23-3.36.68-1.76,1.07-2.42,1.85-1.19,1.69-1.6,2.74c-.41,1.05-.73,2.17-.97,3.36-.24,1.19-.39,2.43-.47,3.71-.08,1.28-.12,2.55-.12,3.79s.03,2.36.08,3.5c.05,1.15.11,2.29.17,3.43.06,1.14.11,2.27.16,3.4.05,1.13.08,2.26.08,3.38v1.68c0,.56-.01,1.12-.04,1.66l6.22-.18c-.12-.76-.22-1.56-.31-2.41-.09-.84-.17-1.7-.24-2.56s-.14-1.72-.2-2.57-.11-1.66-.15-2.42c.34-.03.73-.05,1.17-.07.44-.01.91-.02,1.41-.02.97,0,2.01.04,3.14.13-.13,1.45-.3,3.01-.49,4.69-.2,1.68-.42,3.35-.67,5.02l6.57.24c.06-2.18.12-4.09.18-5.72.06-1.63.11-3.05.15-4.25.04-1.2.08-2.21.12-3.03.04-.82.07-1.51.1-2.08.03-.56.06-1.02.08-1.37.02-.35.04-.66.04-.91,0-.26.01-.49.02-.71,0-.22.01-.48.01-.77,0-1.13-.04-2.26-.13-3.41s-.25-2.24-.47-3.3Zm-4.88,7.69c-.09,1.05-.19,2.1-.27,3.14-.95.09-2.21.13-3.78.13h-1.25c-.42,0-.86-.01-1.3-.04-.06-.95-.11-1.77-.14-2.45-.04-.68-.06-1.32-.06-1.92,0-1.71.1-3.2.3-4.46.2-1.26.47-2.3.81-3.13.34-.83.75-1.44,1.22-1.83.47-.39.98-.59,1.54-.59,1.01,0,1.78.66,2.3,1.99.52,1.33.78,3.26.78,5.79,0,1.2-.05,2.33-.14,3.38Zm55.72,34.78c-.15-.5-.39-.98-.71-1.44-.32-.46-.72-.9-1.22-1.33-.49-.43-1.08-.86-1.77-1.29-.58-.37-1.08-.71-1.5-1.03-.42-.31-.76-.62-1.03-.93s-.47-.62-.6-.95c-.13-.33-.19-.69-.19-1.1,0-.35.06-.65.19-.91.13-.26.29-.47.49-.64.2-.17.42-.3.66-.38.24-.08.48-.13.72-.13.12,0,.24.03.37.06.11.03.23.08.36.15s.26.16.39.28c-.14.17-.24.35-.3.53s-.12.36-.15.52c-.03.19-.05.37-.06.56,0,.3.06.55.18.77s.27.41.45.56c.18.15.38.27.6.34s.43.11.63.11c.16,0,.37-.02.64-.07.27-.05.53-.15.79-.32.26-.17.48-.42.67-.75s.28-.78.28-1.35-.13-1.06-.39-1.52c-.26-.45-.61-.84-1.04-1.17-.44-.33-.94-.58-1.52-.75-.58-.17-1.18-.26-1.82-.26s-1.26.11-1.88.33-1.17.55-1.66.99c-.49.44-.88.99-1.19,1.64-.3.66-.46,1.42-.46,2.29,0,.58.08,1.12.24,1.6.16.48.36.92.62,1.31.26.39.55.75.87,1.05.32.31.65.58.98.82.33.24.65.45.95.62.3.17.57.32.79.45.33.19.67.41,1.02.65.35.24.67.52.95.84.28.32.52.68.7,1.1.18.42.27.89.27,1.42,0,.46-.09.84-.26,1.14-.17.3-.38.54-.63.72-.25.18-.52.31-.8.39-.28.08-.54.11-.76.11s-.49-.07-.81-.22c-.32-.15-.59-.37-.83-.67.33-.08.58-.21.75-.39.17-.18.3-.37.39-.56.08-.19.13-.36.15-.51.01-.15.02-.23.02-.23,0-.45-.07-.82-.21-1.12-.14-.3-.32-.54-.54-.72s-.46-.3-.72-.38-.52-.11-.76-.11-.5.04-.77.13c-.28.09-.54.24-.79.46s-.45.51-.62.88c-.16.36-.25.82-.25,1.36,0,.7.13,1.32.4,1.84.27.52.62.96,1.07,1.31s.97.61,1.56.78c.59.17,1.2.26,1.83.26s1.22-.08,1.83-.23c.61-.15,1.17-.42,1.68-.79.51-.38.94-.88,1.29-1.51.35-.63.57-1.42.65-2.38.02-.12.03-.23.03-.34v-.31c0-.58-.08-1.13-.23-1.63Zm-33.82-5.46c0-.44,0-.91,0-1.42,0-.51.01-1.04.02-1.58,0-.55.02-1.1.03-1.65.01-.55.03-1.09.04-1.62l-3.2.15c.03.3.06.65.08,1.04.02.38.04.79.06,1.22s.03.87.04,1.32c.01.45.02.88.03,1.31.02,1,.03,2.03.04,3.1,0,1.19,0,2.41-.01,3.64,0,.52,0,1.08-.01,1.67,0,.59-.02,1.19-.03,1.8s-.02,1.22-.03,1.83c-.01.61-.03,1.2-.04,1.77l3.35-.34c-.14-1.95-.24-3.92-.3-5.92-.05-2-.08-4.11-.08-6.32Zm-45.14,10.16c.09-.19.21-.46.34-.81.14-.34.27-.74.39-1.19.13-.45.24-.95.33-1.5s.14-1.13.14-1.74c0-.24,0-.48-.03-.72s-.05-.49-.09-.74l-2.88.65c.05.58.08,1.1.08,1.59,0,.7-.05,1.31-.15,1.83-.43-.67-.8-1.29-1.1-1.87-.3-.58-.55-1.08-.74-1.52-.23-.5-.42-.96-.58-1.37-.07-.17-.13-.34-.18-.52.31-.44.65-.91,1.01-1.4.36-.5.69-1.01.99-1.55.3-.54.55-1.09.75-1.67.2-.58.3-1.17.3-1.78,0-.54-.08-.99-.24-1.35-.16-.36-.36-.65-.6-.87s-.52-.38-.83-.47-.6-.14-.89-.14c-.23,0-.48.03-.76.08-.27.05-.56.16-.84.3-.29.15-.57.35-.84.6s-.51.58-.73.98c-.21.4-.39.88-.51,1.44s-.19,1.21-.19,1.97c0,.63.04,1.25.13,1.87.09.62.22,1.25.39,1.9-.36.48-.72.95-1.07,1.4-.35.45-.67.92-.95,1.41-.28.49-.5,1.01-.67,1.57s-.25,1.19-.25,1.9.11,1.35.32,1.96c.21.61.52,1.15.93,1.61.41.46.92.82,1.52,1.09.61.27,1.3.4,2.09.4.58,0,1.16-.08,1.75-.24.59-.16,1.14-.41,1.64-.75l.3.41,3.67-.55c-.36-.36-.71-.73-1.03-1.1-.32-.37-.63-.74-.93-1.11Zm-5.19-13.56c.06-.34.13-.62.22-.84.09-.22.19-.39.29-.5.11-.11.21-.17.31-.17.19,0,.33.09.42.29.08.19.13.42.13.69,0,.25-.01.48-.04.72-.03.23-.09.48-.18.74-.09.26-.22.55-.4.87-.18.32-.41.68-.7,1.08-.04-.33-.07-.63-.1-.91-.02-.28-.03-.55-.03-.8,0-.44.03-.83.08-1.17Zm.84,14.21c-.3.06-.56.09-.77.09-.37,0-.69-.07-.96-.2-.27-.13-.49-.32-.66-.56-.17-.24-.3-.53-.39-.86s-.13-.69-.13-1.09c0-.51.07-1.04.21-1.59.14-.55.36-1.11.65-1.66.39.95.84,1.88,1.34,2.81.5.92,1.03,1.82,1.59,2.68-.3.19-.59.32-.9.38Zm60.77-15.2c-.39-.42-.83-.76-1.32-1-.49-.24-.98-.42-1.48-.53-.5-.12-.97-.18-1.43-.21s-.84-.04-1.16-.04c-.41,0-.92.01-1.54.04-.62.03-1.26.1-1.91.22.03.26.04.57.06.93.01.36.03.75.04,1.16.01.42.02.84.03,1.28s.02.87.03,1.28c.02.98.03,2.01.03,3.08,0,1.12-.03,2.29-.05,3.5-.02.52-.03,1.08-.04,1.68-.01.59-.03,1.21-.06,1.85-.03.64-.05,1.29-.09,1.96-.03.67-.07,1.33-.11,1.99.07,0,.15,0,.25-.01.08,0,.19,0,.32,0,.13,0,.28,0,.44,0,.31,0,.68,0,1.09.03s.87.05,1.37.1c-.05-.62-.09-1.24-.12-1.86-.03-.62-.05-1.22-.07-1.79-.02-.57-.03-1.1-.03-1.59,0-.49,0-.91,0-1.26h.25c.8,0,1.6-.15,2.4-.44s1.53-.73,2.19-1.31c.66-.58,1.19-1.29,1.6-2.14.41-.85.62-1.83.63-2.94,0-.93-.12-1.72-.36-2.37-.24-.65-.56-1.18-.95-1.61Zm-2.2,5.97c-.16.57-.39,1.06-.71,1.48-.32.42-.71.75-1.19.99s-1.03.38-1.66.42c0-.42.02-.97.03-1.63,0-.67.02-1.38.04-2.16.02-.78.04-1.57.06-2.39.02-.82.05-1.6.08-2.35.62.03,1.15.13,1.61.28.45.15.83.38,1.12.67.29.3.51.67.65,1.14.14.46.22,1.01.22,1.66,0,.69-.08,1.33-.24,1.9Zm-29.72-7.58c-.65.02-1.29.03-1.94.04-.65,0-1.31.01-1.99.01h-1.54c.03.29.06.55.09.78.03.23.05.46.06.69.02.22.03.46.04.7,0,.24.02.5.03.79l3.2-.23c.1,1.92.15,3.87.15,5.84,0,1.54-.03,3.13-.09,4.77-.06,1.64-.14,3.39-.25,5.25.53-.1,1.04-.18,1.5-.24.47-.05.97-.08,1.49-.08h.36c-.12-1.83-.21-3.65-.27-5.46s-.09-3.64-.09-5.48c0-.8,0-1.58,0-2.37,0-.78.02-1.58.04-2.39l3.12-.08v-.67c0-.32,0-.63.02-.93.01-.3.04-.67.08-1.1-.71.04-1.4.08-2.06.1-.67.03-1.32.05-1.97.06Zm43.23,16.01v-.24c0-.07,0-.12.01-.17,0-.05,0-.1.01-.14,0,.02-.12.05-.37.11s-.6.12-1.07.2c-.47.07-1.04.14-1.71.21s-1.45.11-2.31.13c-.02-.25-.03-.55-.04-.93-.01-.37-.03-.82-.04-1.35-.01-.52-.02-1.13-.03-1.82,0-.69-.01-1.48-.01-2.36.36,0,.88.01,1.54.04.66.03,1.45.1,2.36.22-.05-.43-.08-.84-.1-1.21-.02-.38-.03-.7-.03-.97v-.32c0-.09,0-.17.01-.24,0-.08,0-.14.01-.2-.3.05-.63.1-1.02.14-.33.04-.73.08-1.19.11-.47.03-.99.05-1.59.07,0-.74,0-1.52.01-2.34,0-.83.02-1.71.04-2.65.14-.02.3-.03.46-.03h.58c.52,0,1.16.01,1.89.04.74.03,1.6.09,2.58.18-.04-.34-.07-.67-.1-1-.02-.33-.04-.63-.04-.89s-.01-.47-.01-.63,0-.24,0-.23c-.23.03-.52.05-.86.06-.3.02-.68.03-1.14.04-.47.01-1.02.02-1.66.02s-1.39-.01-2.23-.03c-.83-.02-1.78-.05-2.84-.1.06.5.11,1.01.16,1.54.05.53.09,1.06.12,1.58s.06,1.04.09,1.54c.03.5.05.98.06,1.44.03,1.07.05,2.11.06,3.12,0,.97-.03,1.99-.06,3.06-.02.46-.04.94-.06,1.46s-.05,1.05-.09,1.61-.07,1.13-.12,1.7c-.05.58-.1,1.15-.16,1.71.3-.03.7-.05,1.21-.08.43-.02.99-.04,1.68-.06.69-.02,1.55-.03,2.57-.03.52,0,1.08,0,1.67,0,.59,0,1.22.02,1.91.03-.07-.57-.11-1.05-.13-1.45s-.03-.71-.03-.95Zm-27.54.86c-.1-.33-.19-.68-.25-1.04-.07-.48-.11-.96-.14-1.43-.03-.47-.06-.93-.1-1.37-.04-.45-.1-.87-.19-1.27-.09-.4-.23-.78-.43-1.13-.19-.35-.46-.67-.8-.95-.34-.28-.78-.53-1.32-.74.36-.1.69-.24.99-.41.3-.17.56-.37.79-.58.23-.21.44-.44.61-.68.17-.24.32-.48.45-.71.3-.54.51-1.13.65-1.76-.02-.9-.19-1.67-.53-2.32-.33-.65-.78-1.18-1.35-1.59-.56-.41-1.22-.7-1.96-.88-.75-.17-1.54-.24-2.39-.21-.52,0-1.05.02-1.59.05-.46.03-.95.06-1.49.11-.53.05-1.03.12-1.5.21.02.3.04.72.06,1.26.02.55.04,1.15.06,1.82.02.66.03,1.36.04,2.08.01.72.03,1.41.04,2.07.01.66.02,1.25.03,1.77,0,.52,0,.92,0,1.19,0,.36,0,.76,0,1.2,0,.45-.01.9-.02,1.38s-.02.96-.04,1.45-.04.96-.06,1.42c-.03.45-.06.88-.1,1.28-.04.4-.08.75-.13,1.05l3.5-.08v-7.91c.07,0,.14,0,.21-.01.07,0,.14-.01.21-.01.49,0,.91.09,1.26.29.35.19.65.44.89.75.24.31.43.67.57,1.06.14.39.25.79.32,1.19.08.4.12.79.15,1.17.02.38.03.7.03.97,0,.04,0,.17,0,.37,0,.2.03.44.07.72.04.28.11.57.2.87.09.3.22.58.4.83l3.69.11c-.2-.19-.37-.42-.51-.72-.14-.29-.26-.58-.35-.87Zm-3.48-10.38c-.12.19-.26.38-.43.56s-.37.34-.61.48-.51.26-.83.34-.67.13-1.08.13c-.13,0-.27,0-.42-.02-.15-.01-.3-.03-.46-.06l-.05-5.74c.4-.09.76-.14,1.09-.14.43,0,.81.04,1.14.13.33.08.6.19.84.33.23.14.43.29.58.47.16.18.29.36.39.53.23.43.35.92.36,1.46-.08.57-.25,1.08-.52,1.52Zm-19.27,3.54c-.32-.46-.72-.9-1.22-1.33-.49-.43-1.08-.86-1.77-1.29-.58-.37-1.08-.71-1.5-1.03-.42-.31-.76-.62-1.03-.93s-.47-.62-.6-.95c-.13-.33-.19-.69-.19-1.1,0-.35.06-.65.19-.91.13-.26.29-.47.49-.64.2-.17.42-.3.66-.38.24-.08.48-.13.72-.13.12,0,.24.03.37.06.11.03.23.08.36.15s.26.16.39.28c-.14.17-.24.35-.3.53s-.12.36-.15.52c-.03.19-.05.37-.06.56,0,.3.06.55.18.77s.27.41.45.56c.18.15.38.27.6.34s.43.11.63.11c.16,0,.37-.02.64-.07.27-.05.53-.15.79-.32.26-.17.48-.42.67-.75s.28-.78.28-1.35-.13-1.06-.39-1.52c-.26-.45-.61-.84-1.04-1.17-.44-.33-.94-.58-1.52-.75-.58-.17-1.18-.26-1.82-.26s-1.26.11-1.88.33-1.17.55-1.66.99c-.49.44-.88.99-1.19,1.64-.3.66-.46,1.42-.46,2.29,0,.58.08,1.12.24,1.6.16.48.36.92.62,1.31.26.39.55.75.87,1.05.32.31.65.58.98.82.33.24.65.45.95.62.3.17.57.32.79.45.33.19.67.41,1.02.65.35.24.67.52.95.84.28.32.52.68.7,1.1.18.42.27.89.27,1.42,0,.46-.09.84-.26,1.14-.17.3-.38.54-.63.72-.25.18-.52.31-.8.39-.28.08-.54.11-.76.11s-.49-.07-.81-.22c-.32-.15-.59-.37-.83-.67.33-.08.58-.21.75-.39.17-.18.3-.37.39-.56.08-.19.13-.36.15-.51.01-.15.02-.23.02-.23,0-.45-.07-.82-.21-1.12-.14-.3-.32-.54-.54-.72s-.46-.3-.72-.38-.52-.11-.76-.11-.5.04-.77.13c-.28.09-.54.24-.79.46s-.45.51-.62.88c-.16.36-.25.82-.25,1.36,0,.7.13,1.32.4,1.84.27.52.62.96,1.07,1.31s.97.61,1.56.78c.59.17,1.2.26,1.83.26s1.22-.08,1.83-.23c.61-.15,1.17-.42,1.68-.79.51-.38.94-.88,1.29-1.51.35-.63.57-1.42.65-2.38.02-.12.03-.23.03-.34v-.31c0-.58-.08-1.13-.23-1.63-.15-.5-.39-.98-.71-1.44Z"/>
      </g>
    </mask>
  </defs>
  <g class="cls-7">
    <rect class="cls-2" x="47.84" y="3.04" width="99.52" height="67.87"/>
  </g>
  <rect class="cls-4" x="2.77" y="3.04" width="145.07" height="67.87"/>
  <g>
    <polygon class="cls-5" points="25.62 70.92 47.84 45.9 47.84 34.48 15.47 70.92 25.62 70.92"/>
    <polygon class="cls-5" points="39.78 70.92 47.84 61.85 47.84 50.42 29.63 70.92 39.78 70.92"/>
    <polygon class="cls-5" points="33.28 3.04 2.77 37.39 2.77 48.81 43.43 3.04 33.28 3.04"/>
    <polygon class="cls-5" points="47.84 3.04 47.44 3.04 2.77 53.33 2.77 64.75 47.84 14.02 47.84 3.04"/>
    <polygon class="cls-5" points="4.95 3.04 2.77 5.5 2.77 16.93 15.1 3.04 4.95 3.04"/>
    <polygon class="cls-5" points="47.84 18.53 2.77 69.27 2.77 70.92 11.46 70.92 47.84 29.96 47.84 18.53"/>
    <polygon class="cls-5" points="19.11 3.04 2.77 21.44 2.77 32.87 29.26 3.04 19.11 3.04"/>
    <polygon class="cls-5" points="47.84 70.92 47.84 66.36 43.8 70.92 47.84 70.92"/>
    <polygon class="cls-1" points="2.77 3.04 2.77 5.5 4.95 3.04 2.77 3.04"/>
    <polygon class="cls-1" points="15.1 3.04 2.77 16.93 2.77 21.44 19.11 3.04 15.1 3.04"/>
    <polygon class="cls-1" points="29.26 3.04 2.77 32.87 2.77 37.39 33.28 3.04 29.26 3.04"/>
    <polygon class="cls-1" points="43.43 3.04 2.77 48.81 2.77 53.33 47.44 3.04 43.43 3.04"/>
    <polygon class="cls-1" points="47.84 14.02 2.77 64.75 2.77 69.27 47.84 18.53 47.84 14.02"/>
    <polygon class="cls-1" points="47.84 34.48 47.84 29.96 11.46 70.92 15.47 70.92 47.84 34.48"/>
    <polygon class="cls-1" points="29.63 70.92 47.84 50.42 47.84 45.9 25.62 70.92 29.63 70.92"/>
    <polygon class="cls-1" points="43.8 70.92 47.84 66.36 47.84 61.85 39.78 70.92 43.8 70.92"/>
  </g>
  <g>
    <path class="cls-3" d="m12.23,37.16c-3.44.04-3.01-3.84-1.24-5.71,1.36-1.96,1.64-4.72,4.4-5.25,2.03-.77,8,4.25,8.71,6.08.72,4.84-8.77,2.98-11.85,4.94,0-.02-.01-.05-.02-.07Z"/>
    <path class="cls-3" d="m36.72,54.47c-1.66.03-3.1-1.1-4.59-1.66-2.33-.95-7.57-.45-7.02-4.16.75-2.43,3.62-2.76,5.38-4.24,1.41-1.5,3.69-1.85,5.37-.54,1.33.96,1.38,2.59,1.97,3.99,1.3,2.13,3.05,6.61-1.11,6.61Z"/>
    <path class="cls-3" d="m42.3,39.46c-.21,1.67-.87,3.17-2.54,4.06-1.45.78-2.9.13-3.3-1.45-1.33-3.79,5.46-8.27,5.84-2.61Z"/>
    <path class="cls-3" d="m35.47,38.09c.18,3.52-4.87,5.53-5.45,1.24-.95-4.64,5.61-7.26,5.45-1.24Z"/>
    <path class="cls-3" d="m15.17,21.21c.3-6.58,7.42-2.5,5.04,2.27-1.57,3.43-5.4.68-5.04-2.27Z"/>
    <path class="cls-3" d="m13.94,23.35c-1.5,8.93-10.14-4.07-2.89-4.26,1.69.42,2.87,2.68,2.79,4.26.03,0,.06,0,.09,0Z"/>
    <path class="cls-3" d="m25.69,24.82c-.1,1.37-.43,2.4-1.33,3.2-3.27,2.44-4.41-3.52-2.01-5.09,1.6-1.47,3.22.26,3.34,1.89Z"/>
    <path class="cls-3" d="m44.75,45.5c0,1.85-2.69,4.89-4.7,3.43-3.31-2.44,4.15-8.09,4.7-3.43Z"/>
    <path class="cls-3" d="m29.06,42.22c-.93,5.57-6.51.57-3.92-2.88,1.86-2.3,4.17.51,3.92,2.88Z"/>
    <path class="cls-3" d="m7.04,25.68c2.13.5,4.42,3.43,2.54,5.34-3.03,2.11-6.99-5.03-2.54-5.34Z"/>
  </g>
</svg>